<svg width="1000" height="4" viewBox="0 0 1000 4" fill="none" xmlns="http://www.w3.org/2000/svg">
<path d="M1.52588e-05 4L37.6873 4V2.38419e-07L1.52588e-05 2.38419e-07V4Z" fill="#FFCA05"/>
<path d="M37.6933 4L75.3805 4V2.38419e-07L37.6933 2.38419e-07V4Z" fill="#F69220"/>
<path d="M75.3753 4L113.062 4V2.38419e-07L75.3753 2.38419e-07V4Z" fill="#ED3029"/>
<path d="M113.069 4L150.756 4V2.38419e-07L113.069 2.38419e-07V4Z" fill="#65308E"/>
<path d="M150.762 4L188.449 4V2.38419e-07L150.762 2.38419e-07V4Z" fill="#0872B9"/>
<path d="M188.455 4L226.142 4V2.38419e-07L188.455 2.38419e-07V4Z" fill="#EC145A"/>
<path d="M226.137 4L263.824 4V2.38419e-07L226.137 2.38419e-07V4Z" fill="#FFCA05"/>
<path d="M263.83 4L301.517 4V2.38419e-07L263.83 2.38419e-07V4Z" fill="#F69220"/>
<path d="M301.523 4L339.211 4V2.38419e-07L301.523 2.38419e-07V4Z" fill="#ED3029"/>
<path d="M339.217 4L376.904 4V2.38419e-07L339.217 2.38419e-07V4Z" fill="#65308E"/>
<path d="M376.899 4L414.586 4V2.38419e-07L376.899 2.38419e-07V4Z" fill="#0872B9"/>
<path d="M414.592 4L452.279 4V2.38419e-07L414.592 2.38419e-07V4Z" fill="#EC145A"/>
<path d="M452.285 4L489.972 4V2.38419e-07L452.285 2.38419e-07V4Z" fill="#FFCA05"/>
<path d="M489.978 4L527.666 4V2.38419e-07L489.978 2.38419e-07V4Z" fill="#F69220"/>
<path d="M527.66 4L565.347 4V2.38419e-07L527.66 2.38419e-07V4Z" fill="#ED3029"/>
<path d="M565.354 4L603.041 4V2.38419e-07L565.354 2.38419e-07V4Z" fill="#65308E"/>
<path d="M603.047 4L640.734 4V2.38419e-07L603.047 2.38419e-07V4Z" fill="#0872B9"/>
<path d="M640.729 4L678.416 4V2.38419e-07L640.729 2.38419e-07V4Z" fill="#EC145A"/>
<path d="M678.422 4L716.109 4V2.38419e-07L678.422 2.38419e-07V4Z" fill="#FFCA05"/>
<path d="M716.115 4L753.802 4V2.38419e-07L716.115 2.38419e-07V4Z" fill="#F69220"/>
<path d="M753.808 4L791.496 4V2.38419e-07L753.808 2.38419e-07V4Z" fill="#ED3029"/>
<path d="M791.49 4L829.177 4V2.38419e-07L791.49 2.38419e-07V4Z" fill="#65308E"/>
<path d="M829.183 4L866.871 4V2.38419e-07L829.183 2.38419e-07V4Z" fill="#0872B9"/>
<path d="M866.877 4L904.564 4V2.38419e-07L866.877 2.38419e-07V4Z" fill="#EC145A"/>
<path d="M904.57 4L942.257 4V2.38419e-07L904.57 2.38419e-07V4Z" fill="#FFCA05"/>
<path d="M942.252 4L979.939 4V2.38419e-07L942.252 2.38419e-07V4Z" fill="#F69220"/>
<path d="M979.943 4L1000 4V2.38419e-07L979.943 2.38419e-07V4Z" fill="#ED3029"/>
</svg>
