<svg width="312" height="354" viewBox="0 0 312 354" fill="none" xmlns="http://www.w3.org/2000/svg">
<path d="M280.456 264.929C257.95 311.258 211.153 343.909 156.123 345.696C77.1449 348.239 10.2436 284.863 8.25377 205.815C7.9793 194.679 8.93993 183.818 11.067 173.37C11.4787 171.308 10.3123 169.315 8.391 168.627C6.05803 167.803 3.51921 169.315 3.0389 171.721C0.705931 183.131 -0.323318 194.954 0.0883815 207.121C2.69581 290.5 71.5869 355.869 154.888 353.945C213.692 352.639 263.782 317.926 287.798 268.504C288.896 266.235 287.798 263.554 285.396 262.798C283.475 262.111 281.348 263.073 280.456 264.929Z" fill="#EAEAEA"/>
<path fill-rule="evenodd" clip-rule="evenodd" d="M169.64 230.628C163.808 232.553 162.367 238.464 158.593 244.926C156.946 247.744 155.711 250.356 154.133 253.037C153.309 254.412 152.692 255.58 151.868 257.024C145.075 268.572 153.104 269.809 162.298 272.971C167.101 274.621 176.708 278.882 181.648 277.439C187.412 275.789 190.431 268.847 193.038 263.76C194.754 260.461 200.723 249.669 201.341 246.369C202.988 237.846 194.342 237.296 188.51 235.302C183.981 233.721 174.1 229.185 169.64 230.628Z" fill="#EAEAEA"/>
<path fill-rule="evenodd" clip-rule="evenodd" d="M130.254 212.482C124.971 214.2 121.746 221.349 118.658 226.161C105.552 246.92 105.827 248.294 121.265 255.787C142.125 265.891 140.958 264.654 150.633 247.813C152.555 244.514 158.867 234.616 159.691 231.11C161.543 222.999 153.241 221.28 147.957 218.737C143.978 216.812 134.508 211.107 130.254 212.482Z" fill="#EAEAEA"/>
<path fill-rule="evenodd" clip-rule="evenodd" d="M101.092 185.331C95.9458 186.637 92.1033 193.923 89.4273 197.841C86.8884 201.484 82.2225 208.633 80.3699 212.894C76.3901 222.243 82.2225 224.717 87.4374 228.154C108.297 242.177 104.386 237.09 118.589 214.888C119.824 213.032 122.02 209.801 123.255 207.533C128.676 197.36 119.207 195.71 109.12 188.424C106.925 186.843 104.454 184.506 101.092 185.331Z" fill="#EAEAEA"/>
<path fill-rule="evenodd" clip-rule="evenodd" d="M193.45 185.537C188.235 187.049 186.177 193.167 183.501 198.459C174.581 215.713 169.091 220.593 183.981 225.542C206.35 233.035 207.791 239.29 217.809 203.271C220.554 193.442 216.848 192.204 209.85 190.005C205.938 188.767 196.812 184.574 193.45 185.537Z" fill="#EAEAEA"/>
<path fill-rule="evenodd" clip-rule="evenodd" d="M161.406 170.964C155.368 172.476 152.349 178.662 149.055 182.305L138.9 195.709C132.999 204.508 142.605 207.532 145.281 208.976C163.808 219.08 166.484 219.699 173.963 206.157C177.6 199.627 186.177 187.048 184.255 181.824C183.02 178.456 164.151 170.276 161.406 170.964Z" fill="#EAEAEA"/>
<path fill-rule="evenodd" clip-rule="evenodd" d="M212.251 243.757C206.899 245.407 204.703 251.937 202.508 256.68C193.587 275.583 185.491 280.669 200.106 283.969C218.152 288.093 221.857 289.399 229.611 274.758C231.876 270.427 240.796 254.961 238.737 249.6C237.571 246.438 233.66 246.782 230.709 246.3C226.249 245.476 215.956 242.589 212.251 243.757Z" fill="#EAEAEA"/>
<path fill-rule="evenodd" clip-rule="evenodd" d="M144.183 274.827C138.625 276.958 134.371 287.268 130.117 293.936C128.813 295.998 126.069 298.61 127.441 302.116C128.813 305.621 137.871 307.958 142.125 309.402C147.546 311.326 154.064 314.282 159.691 310.914C162.092 309.471 168.405 301.978 170.12 299.435C172.453 296.067 179.727 289.262 176.502 284.656C174.718 282.113 164.906 279.57 161.063 278.264C156.26 276.683 149.261 272.902 144.183 274.827Z" fill="#EAEAEA"/>
<path fill-rule="evenodd" clip-rule="evenodd" d="M104.523 256.13C100.2 257.78 98.0043 264.516 96.0831 269.19C88.9469 286.443 88.6039 286.375 105.689 294.623C121.403 302.184 120.922 300.122 129.705 284.588C131.832 280.876 137.802 273.521 133.891 268.572C132.45 266.716 122.912 262.729 119.824 261.217C116.051 259.361 108.914 254.48 104.523 256.13Z" fill="#EAEAEA"/>
<path fill-rule="evenodd" clip-rule="evenodd" d="M227.141 196.328C222.475 198.39 222.201 203.545 220.622 209.457C216.299 225.817 209.369 234.271 221.926 236.883C242.442 241.145 245.805 245.269 249.236 210.969C249.99 203.271 249.647 199.284 242.786 198.184C238.737 197.565 230.16 194.953 227.141 196.328Z" fill="#EAEAEA"/>
<path fill-rule="evenodd" clip-rule="evenodd" d="M67.1268 226.092C63.4215 228.223 62.0492 234.341 60.471 239.565C59.0987 244.033 56.4912 252.35 57.9322 257.162C59.3731 261.973 64.5194 264.31 68.4305 266.991C82.9773 276.821 81.4677 272.284 87.7118 256.749C89.29 252.762 93.8187 245.889 91.4857 240.733C90.1134 237.64 83.3203 234.066 80.0954 232.003C77.2821 230.285 70.6949 224.03 67.1268 226.092Z" fill="#EAEAEA"/>
<path fill-rule="evenodd" clip-rule="evenodd" d="M77.7624 157.423C71.1066 160.997 57.1774 181.894 56.0795 189.73C55.3248 194.954 60.1279 199.353 64.3135 203.202C74.0571 212.138 73.8513 202.446 89.2214 180.725C94.4363 173.37 94.5735 170.689 89.5645 166.084C87.3687 164.091 85.9278 162.51 84.1438 160.585C82.2911 158.385 81.056 155.636 77.7624 157.423Z" fill="#EAEAEA"/>
<path fill-rule="evenodd" clip-rule="evenodd" d="M165.317 315.314C168.611 318.132 176.022 318.82 180.962 319.644C192.558 321.569 199.283 315.383 207.242 305.828C208.683 304.11 216.643 296.892 214.996 293.18C213.967 290.912 202.164 289.743 198.871 289.056C180.756 285.413 184.187 291.05 168.542 308.097C166.896 310.021 164.837 311.327 165.317 315.314Z" fill="#EAEAEA"/>
<path fill-rule="evenodd" clip-rule="evenodd" d="M105.964 114.324C97.0437 118.38 88.7411 124.566 81.2618 131.371C73.4395 138.52 73.5082 141.201 83.3203 149.862C85.173 151.511 86.5453 153.642 90.4565 152.817C94.7793 151.855 106.376 138.932 113.031 133.639C124.284 124.635 120.442 124.497 113.1 116.111C110.767 113.431 109.738 112.606 105.964 114.324Z" fill="#EAEAEA"/>
<path fill-rule="evenodd" clip-rule="evenodd" d="M265.292 250.632C265.292 250.975 265.223 251.319 265.223 251.663C264.468 257.437 257.47 272.422 252.323 280.189C251.225 281.839 250.196 283.213 249.373 284.038C245.256 288.163 241.139 288.025 234.208 288.094C222.887 288.163 231.395 280.533 238.531 264.792C240.59 260.255 242.442 254.687 244.775 251.594C248.549 246.714 253.353 248.501 260.283 247.882C263.302 247.607 265.566 246.645 265.292 250.632Z" fill="#EAEAEA"/>
<path fill-rule="evenodd" clip-rule="evenodd" d="M210.673 147.318C207.379 148.212 205.527 153.504 203.811 157.422C199.282 167.871 192.009 176.463 201.204 179.968C205.252 181.481 209.301 182.718 213.212 184.093C224.122 188.08 224.122 177.631 225.288 164.846C225.769 159.553 226.729 153.161 222.749 150.961C221.24 150.136 211.908 146.974 210.673 147.318Z" fill="#EAEAEA"/>
<path fill-rule="evenodd" clip-rule="evenodd" d="M191.117 139.207C186.589 140.444 175.267 151.992 172.042 155.635C163.602 165.121 169.503 165.602 183.295 172.407C189.196 175.294 192.421 172.339 194.754 168.146C196.881 164.228 198.802 160.516 200.929 156.46C202.37 153.779 207.517 146.356 203.674 143.675C202.782 143.056 199.008 141.407 197.842 140.857C195.577 139.757 193.999 138.451 191.117 139.207Z" fill="#EAEAEA"/>
<path fill-rule="evenodd" clip-rule="evenodd" d="M269.477 202.034C270.507 210.764 270.918 222.724 268.585 236.54C268.311 237.228 267.968 237.778 267.693 238.19C265.36 241.352 259.802 241.008 255.274 241.077C249.098 241.146 248.275 238.19 249.51 231.522C250.333 226.986 251.225 222.655 251.843 217.912C252.323 213.651 252.392 206.708 253.49 203.202C255.274 197.772 259.322 199.972 265.223 199.284C265.566 199.216 265.909 199.216 266.184 199.216C267.762 199.147 269.271 200.384 269.477 202.034Z" fill="#EAEAEA"/>
<path fill-rule="evenodd" clip-rule="evenodd" d="M52.9231 234.34C52.5114 236.471 51.8253 239.358 51.2077 241.558C51.0705 241.97 51.0019 242.383 50.8646 242.726C50.8646 242.795 50.796 242.864 50.796 242.933C50.4529 244.445 50.1785 246.37 48.4631 246.713C48.3944 246.713 48.2572 246.713 48.1886 246.713C48.1886 246.713 48.1886 246.713 48.12 246.713C47.8455 246.713 47.571 246.576 47.2966 246.37C47.228 246.37 47.228 246.301 47.1593 246.301C44.4147 244.72 40.2977 240.458 38.7195 238.327C35.1514 233.653 34.5339 231.728 35.2886 224.03C35.9062 218.393 36.7982 213.719 37.9647 208.77C38.8567 204.989 40.3663 196.672 44.8264 198.459L53.7465 207.395C62.3236 215.025 55.4619 221.693 52.9231 234.34Z" fill="#EAEAEA"/>
<path fill-rule="evenodd" clip-rule="evenodd" d="M48.5317 246.713C48.4631 246.713 48.3258 246.782 48.2572 246.713C48.3258 246.782 48.3944 246.782 48.5317 246.713Z" fill="#EAEAEA"/>
<path fill-rule="evenodd" clip-rule="evenodd" d="M187.206 136.87C187.137 136.939 187.137 137.076 187.069 137.145C187.069 137.145 187.069 137.214 187 137.214C185.148 141.201 178.08 146.218 173.894 150.137C169.228 154.467 163.396 162.303 156.877 158.523C153.515 156.529 148.849 153.573 146.036 151.305C141.233 147.387 148.781 143.057 151.594 141.269C156.946 137.901 170.258 130.065 176.021 129.584C178.903 129.309 183.981 132.746 186.314 134.671C186.314 134.671 186.314 134.671 186.383 134.739C187 135.358 187.48 136.045 187.206 136.87Z" fill="#EAEAEA"/>
<path fill-rule="evenodd" clip-rule="evenodd" d="M230.091 153.78C227.415 155.705 228.307 162.716 228.033 166.771C227.758 171.308 226.798 176.738 226.661 181.069C226.523 187.462 228.925 188.63 233.66 189.661C248.481 192.961 253.352 195.848 246.285 166.428C245.324 162.578 243.883 157.629 241.482 155.705C240.109 154.605 231.464 152.749 230.091 153.78Z" fill="#EAEAEA"/>
<path fill-rule="evenodd" clip-rule="evenodd" d="M110.561 325.487C114.335 328.649 128.127 333.529 133.754 331.948C136.773 331.123 141.027 328.099 143.566 326.243C145.83 324.593 152.76 320.675 148.918 317.238C148.369 316.757 127.853 309.471 126.069 309.265C120.236 308.44 118.589 311.808 116.462 315.039C115.364 316.757 114.404 317.995 113.237 319.644C111.933 321.431 110.561 322.256 110.561 325.487Z" fill="#EAEAEA"/>
<path fill-rule="evenodd" clip-rule="evenodd" d="M88.8097 294.073C86.065 295.654 85.6533 301.36 85.2416 305.278C84.0065 316.207 87.9177 316.001 98.5533 321.156C103.288 323.424 105.895 324.524 108.846 319.781C110.63 316.894 112.894 313.595 114.404 310.639C117.011 305.621 112.894 303.559 109.532 301.909C106.032 300.191 102.876 298.885 99.5139 297.167C96.9065 295.792 91.8288 292.355 88.8097 294.073Z" fill="#EAEAEA"/>
<path fill-rule="evenodd" clip-rule="evenodd" d="M171.836 124.359C171.767 124.428 171.767 124.428 171.699 124.497C171.63 124.497 171.63 124.566 171.561 124.566C168.748 126.765 164.7 128.003 161.132 129.858C140.066 140.788 138.214 146.218 128.196 133.845C124.559 129.377 131.832 126.765 135.332 125.253C139.38 123.535 143.497 122.091 147.82 120.716C152.898 119.135 163.945 114.942 168.748 118.929C169.915 119.891 171.287 120.923 172.11 122.435C172.11 122.504 172.11 122.504 172.179 122.572C172.316 123.191 172.522 123.741 171.836 124.359Z" fill="#EAEAEA"/>
<path fill-rule="evenodd" clip-rule="evenodd" d="M236.541 292.424C239.423 292.287 241.07 295.586 239.355 297.854C235.1 303.285 227.278 309.952 224.602 312.152C218.084 317.513 209.438 323.562 198.253 321.294C198.253 321.294 198.253 321.294 198.185 321.294C197.43 321.088 197.293 320.607 197.43 320.125V320.057C198.528 316.689 203.948 313.183 206.144 311.052L214.996 301.635C217.191 299.16 220.965 294.486 225.425 293.249C226.249 292.974 232.013 292.63 236.541 292.424Z" fill="#EAEAEA"/>
<path fill-rule="evenodd" clip-rule="evenodd" d="M56.3541 130.203C54.8445 131.784 53.9525 132.609 52.8546 134.19C51.8254 135.633 50.6589 137.145 49.561 138.726C47.5711 141.613 45.1695 144.913 43.5914 148.418C40.6408 154.811 41.5329 155.155 44.8265 159.279C46.9536 161.96 51.0706 166.428 54.4328 164.022L66.7838 145.325C71.1753 138.726 68.0189 137.764 65.4801 135.221C63.9019 133.846 59.1673 127.247 56.3541 130.203Z" fill="#EAEAEA"/>
<path fill-rule="evenodd" clip-rule="evenodd" d="M83.3889 296.961C83.1831 298.473 82.1538 310.021 82.1538 310.09C80.507 314.145 67.4699 303.353 65.7545 300.604C63.0784 296.48 59.4417 282.457 61.9119 276.958C62.1178 276.339 62.6667 276.133 63.9704 276.546C66.9209 277.783 69.4598 279.708 71.5869 281.151C74.2629 282.938 77.831 284.794 80.0267 286.513C83.1145 288.918 84.2123 291.737 83.3889 296.961Z" fill="#EAEAEA"/>
<path fill-rule="evenodd" clip-rule="evenodd" d="M265.909 192.135C265.841 192.135 265.703 192.204 265.635 192.204H265.566C262.341 192.891 256.921 193.304 255.068 192.067C252.46 190.348 251.98 184.918 251.363 180.725C250.814 177.082 245.805 157.491 246.285 156.392C246.765 155.361 248.824 155.154 250.608 155.154C250.608 155.154 250.608 155.154 250.676 155.154C252.666 155.292 261.381 160.585 267.076 188.286C267.282 190.348 267.419 191.723 265.909 192.135Z" fill="#EAEAEA"/>
<path fill-rule="evenodd" clip-rule="evenodd" d="M136.91 333.873C140.135 337.929 155.025 337.997 162.024 335.867C165.935 334.629 169.64 333.186 173.14 331.467C176.639 329.818 181.991 327.893 181.923 324.662C180.139 323.562 172.385 322.669 169.503 322.05C155.848 319.094 156.74 320.882 146.859 327.549C144.664 329.061 138.42 331.674 136.91 333.873Z" fill="#EAEAEA"/>
<path fill-rule="evenodd" clip-rule="evenodd" d="M100.2 90.6093C100.68 92.534 99.9942 94.5961 98.4846 95.9021C92.3091 101.401 78.1055 112.399 74.8119 114.668C72.9592 115.905 71.6555 116.042 70.6949 115.63C69.7342 115.217 69.1853 114.255 68.7736 113.362L68.4991 112.468C68.2933 111.781 68.1561 111.093 68.0874 110.406C67.8816 108.619 68.6364 106.831 69.9401 105.663L76.8018 99.4765C78.4486 98.1705 80.0954 97.0019 81.6049 95.9709C100.337 83.5293 99.2394 86.3476 100.2 90.6093Z" fill="#EAEAEA"/>
<path fill-rule="evenodd" clip-rule="evenodd" d="M270.918 235.784C270.712 237.021 273.389 237.365 274.624 237.365C279.152 237.227 279.221 233.722 279.838 231.385C282.515 221.555 282.309 206.639 280.182 196.397C279.907 194.885 278.123 194.266 276.888 195.229C276.545 195.503 274.418 196.809 273.8 197.084C271.056 198.459 270.987 199.971 271.399 203.546C272.016 208.426 272.565 213.444 272.428 218.324C272.291 224.167 271.948 230.01 270.918 235.784Z" fill="#EAEAEA"/>
<path fill-rule="evenodd" clip-rule="evenodd" d="M160.377 102.226C160.583 103.532 159.759 104.769 158.524 105.182C152.898 107.106 146.31 108.137 141.027 109.993C137.528 111.231 134.783 112.124 131.489 113.361C124.833 115.905 120.03 118.311 120.03 110.406V110.337C120.03 110.268 120.03 110.131 120.03 110.062C120.099 109.168 120.579 108.481 122.089 107.656C130.46 103.257 146.859 99.5451 157.701 99.82C159.073 99.8888 160.171 100.92 160.377 102.226Z" fill="#EAEAEA"/>
<path fill-rule="evenodd" clip-rule="evenodd" d="M52.8546 289.674C52.7173 289.88 52.5801 290.086 52.3742 290.361C51.7567 290.911 50.7961 290.98 50.1099 290.361C48.6003 288.918 47.0908 287.268 46.4732 286.443C41.3956 280.188 34.3967 261.216 35.7004 254.549C35.7004 254.549 35.7004 254.549 35.7004 254.48C35.9062 252.83 36.8669 253.38 37.6903 254.274L37.7589 254.343C37.7589 254.411 37.8275 254.411 37.8275 254.48C37.8961 254.549 37.9647 254.618 38.0334 254.755C38.3078 255.099 39.1998 256.267 39.6802 256.817C42.0131 259.704 44.4833 261.354 46.4046 263.485C46.4046 263.485 46.4046 263.485 46.4732 263.553C50.3157 267.128 50.6588 275.789 51.4822 281.288C52.3056 286.237 54.2955 287.268 52.8546 289.674Z" fill="#EAEAEA"/>
<path fill-rule="evenodd" clip-rule="evenodd" d="M52.8546 289.674C52.786 289.949 52.5801 290.155 52.3743 290.361C52.5801 290.086 52.7174 289.88 52.8546 289.674Z" fill="#EAEAEA"/>
<path fill-rule="evenodd" clip-rule="evenodd" d="M277.437 186.911C277.437 187.667 274.967 188.973 274.212 189.454C271.056 191.173 269.82 190.554 268.928 188.286C268.174 185.124 267.144 181.206 267.144 181.206C262.135 164.159 257.401 158.591 256.646 157.079C256.166 155.979 255.96 155.017 256.303 154.673L256.372 154.604C256.577 154.329 256.852 154.123 257.332 153.848C257.401 153.848 257.401 153.779 257.469 153.779L257.538 153.711L258.705 152.954C259.528 152.405 260.557 152.473 261.243 153.161C266.321 157.904 277.094 177.081 277.437 186.911Z" fill="#EAEAEA"/>
<path fill-rule="evenodd" clip-rule="evenodd" d="M269.203 244.72C269.34 244.239 269.752 243.826 270.301 243.758C272.497 243.276 277.094 243.964 276.682 245.339C274.624 252.281 270.026 261.698 267.968 265.754C265.429 270.84 260.9 281.014 256.372 285.069C255.891 285.481 255.205 285.619 254.588 285.344C254.176 285.138 253.627 284.863 253.284 284.588C252.872 284.313 252.598 283.763 252.735 283.282C253.627 279.845 256.577 275.721 258.018 272.971C259.94 269.328 261.93 265.341 263.645 261.286C267.968 249.119 268.585 246.576 269.203 244.72Z" fill="#EAEAEA"/>
<path fill-rule="evenodd" clip-rule="evenodd" d="M208.82 45.6549C214.859 44.1426 217.878 37.9562 221.171 34.3131L231.327 20.9092C237.228 12.1108 227.621 9.08632 224.945 7.64283C206.419 -2.46164 203.743 -3.08028 196.263 10.4611C192.627 16.9912 184.05 29.5702 185.971 34.7943C187.275 38.1624 206.144 46.2735 208.82 45.6549Z" fill="#EAEAEA"/>
<path fill-rule="evenodd" clip-rule="evenodd" d="M254.931 49.0918C261.587 45.5174 275.516 24.6211 276.614 16.785C277.368 11.5609 272.565 7.16168 268.38 3.31236C258.636 -5.62356 258.842 4.06847 243.472 25.7896C238.257 33.1446 238.12 35.8254 243.129 40.4308C245.324 42.4242 246.765 44.0052 248.549 45.9298C250.402 48.1294 251.637 50.879 254.931 49.0918Z" fill="#EAEAEA"/>
<path fill-rule="evenodd" clip-rule="evenodd" d="M226.729 92.1902C235.649 88.1347 243.952 81.9483 251.431 75.1432C259.253 67.9945 259.185 65.3137 249.373 56.6527C247.52 55.003 246.148 52.8722 242.237 53.697C237.914 54.6593 226.317 67.5821 219.662 72.8749C208.409 81.8795 212.251 82.017 219.662 90.403C221.926 93.0838 222.955 93.9087 226.729 92.1902Z" fill="#EAEAEA"/>
<path fill-rule="evenodd" clip-rule="evenodd" d="M181.03 65.245C175.678 68.6132 162.367 76.4493 156.603 76.9305C154.133 77.1367 150.016 74.6621 147.408 72.6687C147.34 72.6687 147.34 72.6 147.271 72.5313C147.202 72.4625 147.134 72.4625 147.065 72.3938C145.556 71.1565 145.556 69.1631 146.448 67.8571C149.055 64.1452 155.025 59.8148 158.799 56.3091C163.465 51.9786 169.297 44.1425 175.816 47.9231C179.178 49.9165 183.844 52.8722 186.657 55.1406C191.392 59.0586 183.844 63.4579 181.03 65.245Z" fill="#EAEAEA"/>
<path fill-rule="evenodd" clip-rule="evenodd" d="M289.17 58.0963C287.524 61.602 285.191 64.9701 283.201 67.7884C282.103 69.3693 280.936 70.8816 279.907 72.3251C278.809 73.906 277.917 74.7309 276.339 76.3119C275.173 77.4804 273.663 77.068 272.222 76.1056C270.712 75.3495 267.213 71.5002 265.223 69.3006C263.645 67.7196 262.89 65.8637 266.046 61.1208L278.398 42.4241C281.691 40.0183 285.808 44.4175 288.004 47.167C291.229 51.36 292.121 51.7037 289.17 58.0963Z" fill="#EAEAEA"/>
<path fill-rule="evenodd" clip-rule="evenodd" d="M263.851 99.8202L255.891 107.038C254.244 108.344 252.598 109.512 251.088 110.543C232.081 123.191 233.522 120.098 232.424 115.767C231.944 113.911 232.424 111.849 233.865 110.543C237.296 107.244 242.031 104.701 246.559 101.539C251.774 97.8955 256.646 92.534 261.243 91.0905H261.312C262.341 90.8155 263.096 91.2279 263.508 92.1903C263.576 92.3277 263.576 92.3965 263.645 92.534C264.606 94.871 265.292 97.6206 263.851 99.8202Z" fill="#EAEAEA"/>
<path fill-rule="evenodd" clip-rule="evenodd" d="M212.663 96.5207C212.663 96.5894 212.663 96.6581 212.663 96.7269C212.663 96.8644 212.663 97.0706 212.663 97.2081C212.594 97.4143 212.457 97.6892 212.114 97.9642C212.114 97.9642 212.045 97.9642 212.045 98.0329C211.908 98.1016 211.771 98.1704 211.634 98.3079C203.4 103.12 185.079 107.244 173.894 106.694C173.208 106.625 172.591 106.144 172.522 105.388L172.248 103.257C172.179 102.57 172.522 101.882 173.208 101.676C179.041 99.5451 186.108 98.4453 191.735 96.5207C195.234 95.2834 197.979 94.3898 201.272 93.1525C207.997 90.5405 212.869 88.0659 212.663 96.5207Z" fill="#EAEAEA"/>
<path fill-rule="evenodd" clip-rule="evenodd" d="M307.834 69.3008C307.834 69.3008 307.834 69.3695 307.834 69.3008C307.766 69.3695 307.766 69.4382 307.697 69.507C307.697 69.507 307.697 69.5757 307.628 69.5757C307.079 70.4006 305.57 72.8064 303.992 75.3497L300.08 81.1924C299.806 81.6048 299.6 81.9485 299.394 82.2922C298.091 83.8732 296.718 82.0173 296.238 80.3676C296.238 80.2988 296.169 80.2301 296.169 80.1614C296.032 79.5427 295.895 79.0615 295.826 78.8553C294.797 74.7311 298.777 70.6068 301.316 66.4825C304.472 61.2584 305.364 58.9214 307.697 54.5221C308.109 53.6973 308.52 53.0786 308.932 52.6662C309.618 52.185 310.51 51.9101 311.334 53.2848C313.255 57.8215 310.647 64.2829 307.834 69.3008Z" fill="#EAEAEA"/>
<path fill-rule="evenodd" clip-rule="evenodd" d="M31.3776 140.032C28.2212 145.256 27.3978 147.593 24.9962 151.993C24.5845 152.749 24.31 153.299 23.8983 153.711C23.6925 153.986 23.418 154.192 23.2122 154.261C22.3202 154.605 21.4281 153.642 21.0851 152.336C19.2324 146.081 24.6531 137.008 27.7409 132.402L32.544 125.185C32.8185 124.704 33.093 124.291 33.3674 123.948C34.1222 122.917 35.769 123.329 36.1121 124.566C36.4552 125.804 36.7297 127.11 36.8669 127.522C37.8961 131.784 33.9164 135.908 31.3776 140.032Z" fill="#EAEAEA"/>
</svg>
