<svg width="152" height="57" viewBox="0 0 152 57" fill="none" xmlns="http://www.w3.org/2000/svg">
<path d="M28.638 21.7474C27.625 21.1354 26.4507 20.8294 25.1152 20.8294C22.3272 20.8294 20.2521 22.0137 18.9024 24.3769C17.6933 22.0154 15.7367 20.8294 13.0531 20.8294C10.5512 20.8294 8.64989 22.0137 7.33652 24.3769V21.2893H0V44.0833H7.88336V29.8416C7.88336 28.0229 8.54084 27.1118 9.86053 27.1118C11.1391 27.1118 11.7824 28.0212 11.7824 29.8416V44.0833H19.6231V30.9048C19.6231 28.4672 20.3848 27.2501 21.9005 27.2501C22.5374 27.2501 22.9768 27.442 23.2281 27.8241C23.4794 28.2062 23.6058 28.8717 23.6058 29.826V44.0833H31.5303V28.5813C31.5303 26.5638 31.2995 25.0719 30.8459 24.1089C30.3924 23.146 29.659 22.3594 28.638 21.7474Z" fill="white"/>
<path d="M86.6412 13.7207L78.8842 13.859L78.7578 21.2893H75.6553V27.0686H78.7578V34.269L78.7372 36.9365C78.7372 39.5211 79.3315 41.4089 80.5058 42.5862C81.6864 43.7704 83.5324 44.3599 86.0469 44.3599C87.5989 44.3599 89.1841 44.1922 90.7915 43.8551V37.4794C89.8906 37.7249 89.1146 37.8459 88.4571 37.8459C88.0383 37.8459 87.6258 37.7387 87.2338 37.5174C86.8355 37.303 86.6396 36.6236 86.6396 35.4688V27.0669H90.7915V21.2876H86.6412V13.7207Z" fill="white"/>
<path d="M116.343 20.8294C112.94 20.8294 110.179 21.9618 108.061 24.2317C105.937 26.5016 104.875 29.3385 104.875 32.739C104.875 35.9044 105.896 38.6636 107.928 41.0182C109.962 43.3642 112.701 44.5415 116.155 44.5415C119.655 44.5415 122.451 43.4022 124.561 41.1237C126.671 38.8451 127.727 36.0099 127.727 32.6077C127.727 29.2296 126.685 26.4238 124.604 24.1833C122.521 21.9462 119.768 20.8294 116.343 20.8294ZM118.585 36.9677C118.314 38.4129 117.538 39.1304 116.28 39.1304C115.385 39.1304 114.713 38.7103 114.266 37.8614C113.819 37.0212 113.596 35.2925 113.596 32.6785C113.596 30.4536 113.812 28.8562 114.246 27.8863C114.679 26.9148 115.363 26.4255 116.3 26.4255C117.321 26.4255 118.02 26.8992 118.418 27.8397C118.81 28.7801 119.004 30.317 119.004 32.4572C119.006 34.0235 118.865 35.5293 118.585 36.9677Z" fill="white"/>
<path d="M150.53 24.2472C150.083 23.2376 149.335 22.4199 148.294 21.7855C147.246 21.151 145.973 20.8294 144.458 20.8294C141.586 20.8294 139.587 22.0603 138.468 24.5135V21.2876H130.878V44.0833H139.054V30.3844C139.054 28.1145 139.795 26.9753 141.276 26.9753C141.779 26.9753 142.191 27.143 142.528 27.4714C142.863 27.7999 143.024 28.5485 143.024 29.7344V44.0833H151.2V29.4976C151.202 27.0064 150.977 25.2551 150.53 24.2472Z" fill="white"/>
<path d="M101.155 28.9305C97.2951 28.9305 94.1531 25.5058 94.1341 21.2876H93.4972V44.0833H101.673V28.9098C101.502 28.9236 101.33 28.9305 101.155 28.9305Z" fill="white"/>
<path d="M101.155 28.3462C97.578 28.3462 94.6699 25.1635 94.6699 21.253C94.6699 17.3408 97.5796 14.1598 101.155 14.1598C104.731 14.1598 107.639 17.3425 107.639 21.253C107.639 25.1635 104.731 28.3462 101.155 28.3462ZM101.155 18.6425C99.8396 18.6425 98.7696 19.8129 98.7696 21.2513C98.7696 22.6896 99.8396 23.86 101.155 23.86C102.47 23.86 103.541 22.6896 103.541 21.2513C103.541 19.8129 102.47 18.6425 101.155 18.6425Z" fill="#E4292D"/>
<path d="M73.5659 40.8246C70.386 47.9697 63.7844 52.997 56.0196 53.2701C44.8773 53.6626 35.4277 43.9018 35.1464 31.7104C35.1069 29.9955 35.2475 28.322 35.5478 26.7108C35.6063 26.3962 35.4435 26.0832 35.1654 25.9795C34.8335 25.8568 34.4779 26.0815 34.4083 26.4584C34.0812 28.2148 33.9342 30.0404 33.9895 31.911C34.3688 44.7714 44.0887 54.8399 55.8473 54.5477C64.1495 54.342 71.2189 49 74.6106 41.3813C74.7639 41.0355 74.6075 40.6223 74.2756 40.4996C73.999 40.3941 73.6955 40.5359 73.5659 40.8246Z" fill="#E4292D"/>
<path fill-rule="evenodd" clip-rule="evenodd" d="M57.9272 35.5414C57.1022 35.8388 56.9031 36.7516 56.372 37.7456C56.1413 38.1778 55.9706 38.5806 55.743 38.9972C55.6292 39.2064 55.5407 39.3931 55.4206 39.6144C54.4581 41.3985 55.5913 41.5801 56.8936 42.0762C57.5732 42.3355 58.9292 42.9821 59.6278 42.766C60.437 42.5153 60.8669 41.44 61.2383 40.6552C61.4801 40.1452 62.3225 38.4873 62.4126 37.9703C62.6433 36.6565 61.4295 36.5735 60.6029 36.2623C59.9518 36.0168 58.5546 35.3167 57.9272 35.5414Z" fill="#5B3188"/>
<path fill-rule="evenodd" clip-rule="evenodd" d="M52.3687 32.7425C51.6211 33.0087 51.166 34.1048 50.7313 34.8551C48.879 38.0516 48.9185 38.2625 51.1043 39.4191C54.044 40.975 53.8844 40.7865 55.2499 38.1951C55.5201 37.6834 56.4131 36.1603 56.5253 35.6192C56.7829 34.371 55.6197 34.1048 54.869 33.7089C54.3111 33.4133 52.9724 32.5264 52.3687 32.7425Z" fill="#5B3188"/>
<path fill-rule="evenodd" clip-rule="evenodd" d="M48.2532 28.5589C47.5278 28.7594 46.9809 29.8883 46.6032 30.483C46.246 31.0449 45.5838 32.1426 45.3262 32.803C44.7667 34.2414 45.5901 34.62 46.3203 35.1542C49.2663 37.31 48.7147 36.5268 50.7203 33.1142C50.891 32.8238 51.2071 32.3293 51.3794 31.9801C52.1475 30.4138 50.8041 30.1545 49.3848 29.0308C49.0782 28.7888 48.7289 28.4275 48.2532 28.5589Z" fill="#E62A55"/>
<path fill-rule="evenodd" clip-rule="evenodd" d="M61.2873 28.5934C60.5539 28.832 60.2647 29.7724 59.8807 30.5832C58.6258 33.2369 57.8434 33.9907 59.9502 34.76C63.1032 35.9131 63.3103 36.8829 64.7216 31.3301C65.1073 29.8139 64.5873 29.6289 63.6011 29.2815C63.0495 29.0878 61.763 28.4395 61.2873 28.5934Z" fill="#5B3188"/>
<path fill-rule="evenodd" clip-rule="evenodd" d="M56.7703 26.346C55.92 26.5759 55.4965 27.5302 55.0302 28.0973L53.6015 30.1597C52.7654 31.5151 54.1278 31.9784 54.4992 32.1997C57.1164 33.7608 57.4878 33.8559 58.5515 31.7692C59.0651 30.7596 60.2774 28.8251 60.0008 28.0195C59.8175 27.4939 57.1528 26.2423 56.7703 26.346Z" fill="#E62A55"/>
<path fill-rule="evenodd" clip-rule="evenodd" d="M63.9472 37.5606C63.1917 37.813 62.8836 38.8227 62.569 39.5522C61.3062 42.4687 60.1683 43.2449 62.2277 43.7618C64.7722 44.3997 65.3017 44.602 66.3922 42.339C66.7146 41.67 67.9711 39.2912 67.6834 38.4562C67.5159 37.9669 66.969 38.0222 66.555 37.9444C65.9196 37.8234 64.4688 37.386 63.9472 37.5606Z" fill="#5B3188"/>
<path fill-rule="evenodd" clip-rule="evenodd" d="M54.3317 42.3545C53.543 42.6813 52.9424 44.277 52.3418 45.3056C52.1538 45.6271 51.7729 46.0213 51.9673 46.5624C52.1617 47.1052 53.4418 47.4596 54.0361 47.6861C54.8026 47.98 55.7209 48.4416 56.5174 47.9212C56.8588 47.6982 57.7486 46.5417 57.992 46.151C58.3192 45.6289 59.3449 44.5864 58.8929 43.8759C58.6416 43.48 57.2555 43.0962 56.7166 42.8939C56.0417 42.6415 55.0555 42.0555 54.3317 42.3545Z" fill="#5B3188"/>
<path fill-rule="evenodd" clip-rule="evenodd" d="M48.7431 39.4709C48.1346 39.7199 47.8233 40.7623 47.5483 41.4867C46.5384 44.149 46.4925 44.1352 48.9075 45.4024C51.1296 46.5676 51.0553 46.2495 52.3023 43.8586C52.5979 43.2915 53.4434 42.154 52.8934 41.3882C52.6927 41.1064 51.3461 40.4892 50.9083 40.2558C50.3615 39.9671 49.3595 39.2185 48.7431 39.4709Z" fill="#E62A55"/>
<path fill-rule="evenodd" clip-rule="evenodd" d="M66.0397 30.2531C65.3854 30.5746 65.3428 31.3612 65.1215 32.2809C64.513 34.8032 63.5331 36.1085 65.3064 36.5095C68.2018 37.163 68.6775 37.8027 69.1612 32.516C69.2702 31.3301 69.2181 30.7112 68.2556 30.5452C67.685 30.4467 66.4665 30.0439 66.0397 30.2531Z" fill="#5B3188"/>
<path fill-rule="evenodd" clip-rule="evenodd" d="M43.4612 34.843C42.9412 35.1732 42.7468 36.1119 42.5224 36.9175C42.3312 37.609 41.9629 38.8918 42.1621 39.6265C42.3628 40.3682 43.093 40.7329 43.643 41.1392C45.6912 42.6553 45.4858 41.9517 46.3629 39.5608C46.589 38.9436 47.2196 37.8874 46.9003 37.0938C46.7106 36.6219 45.7434 36.0652 45.2882 35.7506C44.8979 35.4826 43.9606 34.5249 43.4612 34.843Z" fill="#E62A55"/>
<path fill-rule="evenodd" clip-rule="evenodd" d="M44.9642 24.2576C44.0286 24.8126 42.0625 28.0281 41.9029 29.2365C41.797 30.0369 42.4766 30.7181 43.0677 31.3128C44.4427 32.6941 44.4142 31.2004 46.5874 27.8448C47.3239 26.7073 47.3381 26.2959 46.6364 25.5871C46.3297 25.2759 46.1211 25.0408 45.8714 24.7399C45.598 24.408 45.4226 23.9845 44.9642 24.2576Z" fill="#F49B23"/>
<path fill-rule="evenodd" clip-rule="evenodd" d="M57.3203 48.5868C57.7834 49.0173 58.8312 49.1228 59.533 49.2524C61.1687 49.5532 62.1154 48.5938 63.2455 47.1277C63.4462 46.8667 64.5746 45.7551 64.3407 45.1794C64.2001 44.8302 62.5343 44.6487 62.0696 44.5467C59.5172 43.9883 59.9992 44.8492 57.7865 47.477C57.5384 47.7709 57.2508 47.9749 57.3203 48.5868Z" fill="#397BBC"/>
<path fill-rule="evenodd" clip-rule="evenodd" d="M48.9438 17.6174C47.6858 18.2397 46.5147 19.1957 45.4621 20.2417C44.3573 21.3377 44.3636 21.7595 45.7497 23.0907C46.0121 23.3431 46.2033 23.6785 46.7549 23.5436C47.3665 23.3932 49.0023 21.4034 49.9411 20.584C51.5311 19.1975 50.9905 19.1785 49.9459 17.8819C49.6234 17.4808 49.478 17.3529 48.9438 17.6174Z" fill="#F49B23"/>
<path fill-rule="evenodd" clip-rule="evenodd" d="M71.4291 38.6238C71.426 38.6722 71.4212 38.7258 71.4149 38.7863C71.309 39.6732 70.3181 41.9829 69.5926 43.1878C69.5926 43.1896 69.591 43.1896 69.591 43.1913C69.4362 43.4472 69.2939 43.6546 69.1738 43.7843C68.5969 44.4187 68.0169 44.4014 67.037 44.4084C65.4344 44.4187 66.6419 43.238 67.6439 40.8159C67.9316 40.121 68.1908 39.2583 68.5242 38.7794C69.0537 38.0222 69.7349 38.304 70.7084 38.202C71.1494 38.1571 71.4639 38.0032 71.4291 38.6238Z" fill="#397BBC"/>
<path fill-rule="evenodd" clip-rule="evenodd" d="M63.718 22.6983C63.2518 22.8383 62.9926 23.6526 62.754 24.2507C62.1123 25.8568 61.0897 27.1862 62.381 27.7204C62.9499 27.9555 63.5236 28.1405 64.0736 28.36C65.6099 28.9703 65.6178 27.3677 65.7774 25.3969C65.8438 24.5844 65.9765 23.5972 65.417 23.2567C65.2084 23.1305 63.8935 22.6447 63.718 22.6983Z" fill="#5B3188"/>
<path fill-rule="evenodd" clip-rule="evenodd" d="M60.9649 21.4518C60.3216 21.6454 58.7301 23.4192 58.267 23.9879C57.0738 25.4539 57.9067 25.5214 59.8538 26.569C60.6851 27.0168 61.1419 26.5569 61.4706 25.9069C61.7756 25.3035 62.0459 24.7313 62.3462 24.1107C62.5469 23.6958 63.2723 22.553 62.7302 22.1364C62.6006 22.0361 62.0743 21.7924 61.9068 21.7025C61.5907 21.5331 61.3663 21.3308 60.9649 21.4518Z" fill="#5B3188"/>
<path fill-rule="evenodd" clip-rule="evenodd" d="M72.017 31.1364C72.164 32.478 72.2209 34.3261 71.8874 36.4594C71.8479 36.5614 71.8053 36.6478 71.7578 36.7152C71.4323 37.1976 70.6405 37.1474 70.0035 37.1595C69.1343 37.1751 69.0157 36.7152 69.1912 35.6832C69.3113 34.9795 69.4377 34.3122 69.5168 33.5861C69.5879 32.9344 69.5895 31.8574 69.7522 31.3232C70.0083 30.4847 70.5741 30.8287 71.4101 30.7181C71.4576 30.7112 71.5018 30.706 71.5445 30.7043C71.78 30.6852 71.9886 30.8754 72.017 31.133C72.017 31.1347 72.017 31.1347 72.017 31.1364Z" fill="#397BBC"/>
<path fill-rule="evenodd" clip-rule="evenodd" d="M41.4572 36.1119C41.3955 36.4456 41.307 36.8812 41.2138 37.2287C41.1964 37.2961 41.1822 37.3532 41.1695 37.4033C41.1664 37.4154 41.1648 37.4258 41.1616 37.4379C41.1126 37.6678 41.0731 37.9721 40.8345 38.0222C40.8218 38.0239 40.8092 38.0257 40.7949 38.0274C40.7934 38.0274 40.7918 38.0274 40.7902 38.0274C40.7523 38.0239 40.7143 38.0015 40.6717 37.9738C40.6638 37.9704 40.6574 37.9652 40.6511 37.9617C40.2623 37.7214 39.687 37.0576 39.4595 36.7343C38.9521 36.0116 38.8636 35.716 38.979 34.5266C39.0628 33.6536 39.1939 32.9413 39.3551 32.1703C39.4768 31.5911 39.6981 30.3066 40.324 30.5815L41.5789 31.9628C42.78 33.1384 41.8128 34.1601 41.4572 36.1119Z" fill="#FBC60F"/>
<path fill-rule="evenodd" clip-rule="evenodd" d="M40.8329 38.0222C40.8187 38.0274 40.806 38.0291 40.7934 38.0274C40.8076 38.0257 40.8202 38.0239 40.8329 38.0222Z" fill="#FBC60F"/>
<path fill-rule="evenodd" clip-rule="evenodd" d="M60.4085 21.0922C60.4022 21.1078 60.3975 21.1216 60.3911 21.1372C60.3896 21.1406 60.388 21.1458 60.3864 21.1493C60.1225 21.7613 59.1268 22.5357 58.5325 23.1391C57.8766 23.8064 57.0469 25.0148 56.1302 24.427C55.6529 24.121 54.9954 23.6681 54.6035 23.3189C53.9286 22.7173 54.9923 22.043 55.389 21.7751C56.1476 21.2599 58.0189 20.0463 58.8376 19.9702C59.2437 19.9322 59.9581 20.4543 60.2853 20.7551C60.2868 20.7568 60.29 20.7586 60.2916 20.762C60.3832 20.8554 60.4465 20.966 60.4085 21.0922Z" fill="#E62A55"/>
<path fill-rule="evenodd" clip-rule="evenodd" d="M66.457 23.6958C66.0808 23.9966 66.2009 25.0771 66.1693 25.6994C66.1346 26.4013 65.9923 27.2415 65.9797 27.8984C65.9623 28.8838 66.3037 29.0602 66.9643 29.2192C69.06 29.7223 69.7396 30.1683 68.7486 25.6389C68.6175 25.0425 68.4088 24.2835 68.0706 23.9879C67.8794 23.822 66.6529 23.5384 66.457 23.6958Z" fill="#5B3188"/>
<path fill-rule="evenodd" clip-rule="evenodd" d="M49.5934 50.1583C50.1308 50.6493 52.0779 51.3978 52.8681 51.1558C53.298 51.0244 53.8923 50.5611 54.2558 50.2741C54.5782 50.0183 55.5502 49.4201 55.0065 48.8825C54.9306 48.8081 52.0305 47.6861 51.7839 47.6481C50.9653 47.5236 50.7266 48.0405 50.4263 48.5384C50.2683 48.8012 50.1403 48.9914 49.968 49.2455C49.7799 49.529 49.5871 49.6656 49.5934 50.1583Z" fill="#5B3188"/>
<path fill-rule="evenodd" clip-rule="evenodd" d="M46.5257 45.316C46.1417 45.5563 46.0848 46.4345 46.0215 47.0413C45.8461 48.7217 46.4024 48.6906 47.8991 49.4858C48.5661 49.8402 48.9343 49.9992 49.35 49.2766C49.6045 48.834 49.9206 48.3189 50.1387 47.8677C50.5101 47.0966 49.9237 46.7716 49.4512 46.5227C48.9549 46.2633 48.5124 46.0593 48.0414 45.7914C47.6652 45.5805 46.9477 45.0515 46.5257 45.316Z" fill="#E62A55"/>
<path fill-rule="evenodd" clip-rule="evenodd" d="M58.237 19.1629C58.2291 19.1698 58.2227 19.175 58.2148 19.1819C58.2101 19.1871 58.2038 19.1923 58.1975 19.1957C57.7976 19.5311 57.2271 19.7247 56.7213 20.0135C53.7532 21.7025 53.4893 22.5306 52.0732 20.6324C51.5563 19.9391 52.5852 19.5363 53.0767 19.3081C53.6473 19.0436 54.2337 18.8171 54.839 18.6097C55.5533 18.3625 57.118 17.7228 57.7913 18.3365C57.9572 18.4904 58.1516 18.6391 58.267 18.8794C58.2702 18.8846 58.2717 18.8915 58.2749 18.8967C58.3049 18.9779 58.3334 19.0661 58.237 19.1629Z" fill="#E62A55"/>
<path fill-rule="evenodd" clip-rule="evenodd" d="M67.3705 45.0619C67.7751 45.0428 68.0137 45.5511 67.764 45.9003C67.1666 46.7371 66.0603 47.7639 65.6841 48.1011C64.7675 48.9222 63.541 49.8592 61.9685 49.5118C61.9653 49.5118 61.9637 49.5118 61.9621 49.51C61.8578 49.4789 61.8389 49.408 61.8562 49.3337C61.8578 49.3285 61.8594 49.3233 61.8594 49.3181C62.0175 48.796 62.784 48.2636 63.0843 47.9299L64.3328 46.4795C64.641 46.0939 65.1736 45.373 65.8011 45.1846C65.9149 45.1483 66.7288 45.0912 67.3705 45.0619Z" fill="#397BBC"/>
<path fill-rule="evenodd" clip-rule="evenodd" d="M41.9424 20.0584C41.7243 20.3039 41.6026 20.4335 41.443 20.6738C41.2928 20.9003 41.1348 21.1302 40.9767 21.374C40.6922 21.8166 40.3603 22.3283 40.1312 22.8729C39.7155 23.8565 39.8388 23.9084 40.3034 24.5498C40.6069 24.9682 41.1901 25.6493 41.6547 25.2776L43.3948 22.4009C44.0144 21.3844 43.5639 21.2322 43.2131 20.8467C43.0076 20.6203 42.3407 19.6106 41.9424 20.0584Z" fill="#FBC60F"/>
<path fill-rule="evenodd" clip-rule="evenodd" d="M45.7545 45.7603C45.7213 45.9919 45.5853 47.7778 45.5853 47.7795C45.3578 48.4088 43.5149 46.744 43.2668 46.3221C42.8907 45.6842 42.3802 43.525 42.7231 42.6813C42.7563 42.581 42.8259 42.5516 43.0139 42.6191C43.4312 42.811 43.7884 43.1014 44.0886 43.3244C44.468 43.6027 44.969 43.8897 45.2803 44.156C45.7181 44.5259 45.8746 44.9581 45.7545 45.7603Z" fill="#E62A55"/>
<path fill-rule="evenodd" clip-rule="evenodd" d="M71.5113 29.603C71.4986 29.6065 71.486 29.61 71.4718 29.6117C71.4718 29.6117 71.4702 29.6117 71.4686 29.6117C71.4655 29.6117 71.4607 29.6134 71.4575 29.6151C71.0008 29.7206 70.2343 29.7846 69.9767 29.5944C69.6116 29.3264 69.5404 28.4932 69.4519 27.8414C69.3761 27.283 68.6649 24.2611 68.7376 24.0934C68.8071 23.9378 69.0948 23.9032 69.3445 23.905C69.346 23.905 69.3476 23.905 69.3492 23.905C69.3508 23.905 69.3524 23.905 69.3539 23.905C69.6384 23.9292 70.8617 24.7365 71.6709 29.0101C71.712 29.3334 71.7246 29.5391 71.5113 29.603Z" fill="#397BBC"/>
<path fill-rule="evenodd" clip-rule="evenodd" d="M53.3107 51.4532C53.7674 52.0807 55.8647 52.0876 56.8541 51.7557C57.4104 51.569 57.9304 51.3408 58.4266 51.0832C58.9166 50.8274 59.6768 50.5335 59.6641 50.0304C59.4144 49.8644 58.3144 49.7209 57.9161 49.6276C55.9911 49.1729 56.116 49.4495 54.7236 50.4747C54.4044 50.7081 53.5225 51.1074 53.3107 51.4532Z" fill="#5B3188"/>
<path fill-rule="evenodd" clip-rule="evenodd" d="M48.1283 13.9575C48.1915 14.2583 48.0983 14.573 47.8881 14.777C47.0204 15.6206 45.0164 17.3148 44.5438 17.6692C44.2846 17.8628 44.1013 17.8836 43.9669 17.8214C43.8358 17.7591 43.7536 17.6139 43.6967 17.4739L43.654 17.3373C43.6256 17.2318 43.6034 17.1246 43.594 17.0192C43.5687 16.7443 43.6698 16.4729 43.8563 16.2879L44.822 15.3336C45.0543 15.1365 45.2851 14.9481 45.5032 14.7908C48.1489 12.8649 47.9908 13.304 48.1283 13.9575Z" fill="#FBC60F"/>
<path fill-rule="evenodd" clip-rule="evenodd" d="M72.2257 36.3297C72.1941 36.5199 72.5765 36.5752 72.752 36.57C73.392 36.551 73.4015 36.0065 73.49 35.6521C73.8678 34.1359 73.8362 31.8366 73.539 30.2583C73.4964 30.0283 73.2451 29.9315 73.0775 30.0802C73.0333 30.1199 72.7267 30.3257 72.6445 30.3706C72.2525 30.5833 72.243 30.8115 72.311 31.3647C72.4011 32.1115 72.4801 32.8877 72.4517 33.6415C72.4201 34.5422 72.3711 35.4463 72.2257 36.3297Z" fill="#397BBC"/>
<path fill-rule="evenodd" clip-rule="evenodd" d="M56.6186 15.752C56.6439 15.9543 56.5348 16.1462 56.3578 16.2119C55.566 16.5075 54.6335 16.6717 53.8923 16.9552C53.3944 17.1454 53.012 17.2803 52.5426 17.4756C51.6054 17.868 50.9258 18.2415 50.9258 17.0209V17.0123C50.9258 16.9985 50.9258 16.9846 50.9258 16.9708C50.9337 16.8325 51.0064 16.7305 51.215 16.5974C51.215 16.5974 51.2166 16.5974 51.2166 16.5957C52.394 15.9162 54.7173 15.3475 56.244 15.3821C56.4353 15.389 56.5933 15.5463 56.6186 15.752Z" fill="#F49B23"/>
<path fill-rule="evenodd" clip-rule="evenodd" d="M41.4493 44.6383C41.4319 44.6711 41.4098 44.7057 41.3829 44.7437C41.2975 44.8267 41.1616 44.8423 41.0621 44.7403C40.8487 44.5225 40.6401 44.2631 40.5453 44.1335C39.8293 43.1671 38.8368 40.242 39.028 39.2185C39.028 39.2168 39.028 39.2151 39.028 39.2116C39.058 38.961 39.1876 39.0388 39.3046 39.1788C39.3062 39.1805 39.3062 39.1805 39.3077 39.1822C39.3109 39.1857 39.3141 39.1892 39.3172 39.1943C39.3204 39.1995 39.3267 39.2064 39.3315 39.2116C39.3394 39.222 39.3488 39.2358 39.3631 39.2531C39.4042 39.3033 39.5306 39.4865 39.5954 39.5712C39.9289 40.0103 40.2781 40.2662 40.5421 40.5981C40.5437 40.5998 40.5452 40.6016 40.5468 40.6033C41.0858 41.1513 41.1348 42.4911 41.2565 43.3348C41.3671 44.1127 41.6468 44.2735 41.4493 44.6383Z" fill="#F49B23"/>
<path fill-rule="evenodd" clip-rule="evenodd" d="M41.4493 44.6383C41.4351 44.6798 41.4129 44.7161 41.3829 44.7437C41.4098 44.7057 41.4319 44.6711 41.4493 44.6383Z" fill="#F49B23"/>
<path fill-rule="evenodd" clip-rule="evenodd" d="M73.1471 28.8026C73.1503 28.9202 72.801 29.1259 72.6935 29.1916C72.251 29.4595 72.0724 29.361 71.9459 29.0066C71.8385 28.5191 71.6947 27.9123 71.6947 27.9123C70.9929 25.2897 70.3196 24.4288 70.2153 24.1919C70.2153 24.1902 70.2153 24.1902 70.2138 24.1885C70.149 24.0173 70.1158 23.8704 70.1663 23.815C70.1695 23.8099 70.1727 23.8047 70.1758 23.7995C70.2027 23.7597 70.2469 23.7217 70.3102 23.6819C70.3149 23.6767 70.3212 23.6716 70.3276 23.6664C70.3307 23.6629 70.3355 23.6612 70.3386 23.6577L70.4998 23.5367C70.6105 23.4537 70.7606 23.4676 70.857 23.5696C71.5777 24.332 73.0981 27.2899 73.1471 28.8026Z" fill="#397BBC"/>
<path fill-rule="evenodd" clip-rule="evenodd" d="M71.9839 37.7145C72.0076 37.6384 72.0645 37.5814 72.1356 37.5658C72.4422 37.4949 73.0981 37.6021 73.0396 37.8113C72.7456 38.8797 72.1008 40.3301 71.8116 40.9611C71.4528 41.746 70.8096 43.3106 70.179 43.9329C70.1094 44.0021 70.0099 44.0194 69.9261 43.9744C69.866 43.9433 69.7949 43.8984 69.738 43.8603C69.6764 43.8188 69.6432 43.7376 69.6622 43.6615C69.7854 43.1325 70.2043 42.498 70.4129 42.0745C70.6895 41.5144 70.9645 40.9006 71.2047 40.2714C71.8053 38.3904 71.8969 37.9963 71.9839 37.7145Z" fill="#397BBC"/>
<path fill-rule="evenodd" clip-rule="evenodd" d="M63.4636 7.03029C64.3139 6.80036 64.7374 5.84607 65.2037 5.27903L66.6324 3.21659C67.4685 1.86122 66.1061 1.3979 65.7347 1.17662C63.1174 -0.382745 62.746 -0.479557 61.6824 1.60709C61.1687 2.61497 59.9565 4.54948 60.2331 5.35509C60.4148 5.88237 63.0795 7.13401 63.4636 7.03029Z" fill="#E62A55"/>
<path fill-rule="evenodd" clip-rule="evenodd" d="M69.9656 7.56621C70.9012 7.01127 72.8673 3.79573 73.027 2.5873C73.1329 1.78688 72.4533 1.10574 71.8622 0.512762C70.4872 -0.868538 70.5156 0.625133 68.3425 3.98071C67.606 5.11825 67.5917 5.5297 68.2935 6.2385C68.6001 6.54968 68.8087 6.7848 69.0584 7.0856C69.3303 7.4158 69.5073 7.83763 69.9656 7.56621Z" fill="#F49B23"/>
<path fill-rule="evenodd" clip-rule="evenodd" d="M65.9844 14.2065C67.2425 13.5841 68.4136 12.6281 69.4678 11.5822C70.5725 10.4844 70.5646 10.0643 69.1801 8.73313C68.9177 8.48073 68.7265 8.14534 68.1749 8.28192C67.5633 8.43232 65.9275 10.4222 64.9887 11.2416C63.3988 12.6281 63.9393 12.6471 64.984 13.9437C65.3048 14.343 65.4518 14.471 65.9844 14.2065Z" fill="#F49B23"/>
<path fill-rule="evenodd" clip-rule="evenodd" d="M59.5393 10.047C58.7807 10.5622 56.9094 11.7758 56.0907 11.8519C55.7399 11.8847 55.1567 11.4992 54.7947 11.1984C54.7884 11.1932 54.7821 11.188 54.7758 11.1828C54.7663 11.1742 54.7568 11.1673 54.7473 11.1586C54.5355 10.9685 54.5324 10.659 54.6588 10.4637C55.0255 9.89144 55.871 9.21895 56.3973 8.68475C57.0548 8.01744 57.8845 6.81075 58.7996 7.39681C59.2769 7.70107 59.9344 8.15574 60.3264 8.50496C61.0012 9.10312 59.936 9.77907 59.5393 10.047Z" fill="#E62A55"/>
<path fill-rule="evenodd" clip-rule="evenodd" d="M74.7971 8.95097C74.5679 9.49554 74.236 10.0055 73.9515 10.4481C73.7935 10.6936 73.6355 10.9235 73.4853 11.1483C73.3257 11.3886 73.204 11.5199 72.9859 11.7654C72.8199 11.9504 72.6097 11.8864 72.4043 11.7309C72.1925 11.6133 71.6994 11.0238 71.4165 10.6798C71.1936 10.436 71.0893 10.1507 71.5334 9.42466L73.2735 6.54796C73.7382 6.17454 74.3214 6.85568 74.6248 7.27577C75.0911 7.91543 75.2143 7.96556 74.7971 8.95097Z" fill="#FBC60F"/>
<path fill-rule="evenodd" clip-rule="evenodd" d="M71.2268 15.3838L70.1063 16.4919C69.874 16.689 69.6432 16.8774 69.4235 17.0348C66.7446 18.9831 66.9422 18.506 66.7936 17.8387C66.7288 17.5482 66.7968 17.2388 66.9928 17.0296C67.4732 16.5179 68.1481 16.1254 68.7819 15.6414C69.5152 15.083 70.2043 14.2549 70.8538 14.0336C70.857 14.0319 70.8617 14.0301 70.8649 14.0301C71.0151 13.9886 71.1162 14.0509 71.1794 14.1996C71.1857 14.2151 71.1921 14.2324 71.1968 14.2497C71.1968 14.2514 71.1984 14.2531 71.1984 14.2549C71.3296 14.6127 71.4244 15.0397 71.2268 15.3838Z" fill="#FBC60F"/>
<path fill-rule="evenodd" clip-rule="evenodd" d="M64.0041 14.8755C64.0041 14.8842 64.0041 14.8945 64.0041 14.9032C64.0041 14.9274 64.0025 14.9533 64.0009 14.9792C64.0009 14.9792 64.0009 14.981 64.0009 14.9827C63.993 15.019 63.9756 15.0553 63.9203 15.0968C63.9172 15.0985 63.9156 15.1003 63.9124 15.102C63.8935 15.1158 63.8729 15.1279 63.8524 15.1418C62.6892 15.8834 60.1067 16.5161 58.5278 16.4332C58.4282 16.428 58.346 16.345 58.3334 16.2361L58.2939 15.9111C58.2812 15.8056 58.3365 15.7036 58.4282 15.6673C59.2501 15.3336 60.2521 15.1694 61.0391 14.8686C61.537 14.6767 61.921 14.5436 62.3889 14.3465C63.3419 13.9472 64.031 13.5668 64.0041 14.8755Z" fill="#F49B23"/>
<path fill-rule="evenodd" clip-rule="evenodd" d="M77.4365 10.6797C77.4349 10.6815 77.4333 10.6832 77.4333 10.6866C77.4302 10.6936 77.4254 10.7005 77.4223 10.7074C77.4207 10.7108 77.4191 10.716 77.4159 10.7195C77.3432 10.8509 77.1299 11.2208 76.9007 11.6081L76.346 12.514C76.3096 12.5779 76.278 12.6315 76.2464 12.6782C76.2464 12.6782 76.2464 12.6782 76.2448 12.6799C76.0631 12.9254 75.8655 12.635 75.796 12.386C75.7928 12.3739 75.7896 12.3618 75.7865 12.3497C75.7659 12.2581 75.7485 12.1838 75.7406 12.1492C75.5984 11.5095 76.1547 10.8785 76.5119 10.2441C76.9608 9.44364 77.0793 9.0806 77.4128 8.39773C77.476 8.2698 77.525 8.17471 77.5866 8.10902C77.6799 8.03295 77.8095 7.988 77.9248 8.2041C78.1951 8.9129 77.83 9.90868 77.4365 10.6797Z" fill="#F49B23"/>
<path fill-rule="evenodd" clip-rule="evenodd" d="M38.4179 21.578C37.9691 22.3784 37.8521 22.7397 37.5187 23.4243C37.4633 23.5384 37.4175 23.6249 37.3654 23.6889C37.3654 23.6889 37.3638 23.6906 37.3638 23.6923C37.3322 23.739 37.299 23.7666 37.2674 23.7805C37.1425 23.8358 37.0161 23.6802 36.9639 23.4866C36.7063 22.5219 37.4697 21.1216 37.9043 20.418L38.5839 19.3098C38.6266 19.2355 38.6613 19.1767 38.6993 19.1249C38.8099 18.9675 39.0391 19.0246 39.0849 19.2165C39.1292 19.4032 39.1766 19.6089 39.1908 19.6729C39.3315 20.3108 38.7751 20.9418 38.4179 21.578Z" fill="#F49B23"/>
<path d="M143.176 51.6745C141.646 53.22 140.363 55.094 138.349 55.9757C138.07 56.0984 137.638 56.1952 137.439 56.0466C137.216 55.8789 137.102 55.4242 137.074 55.0819C136.941 53.4655 137.802 52.2934 138.624 51.1074C138.808 50.8429 138.958 50.5525 139.035 50.1739C138.305 50.7167 137.565 51.2457 136.846 51.8076C136.393 52.162 134.216 53.7127 133.565 54.112C133.135 54.3748 132.737 54.705 132.291 54.928C131.632 55.26 130.962 55.6835 130.264 55.7734C129.524 55.8685 128.394 56.05 127.563 54.8468C127.022 54.1069 127.231 52.8552 127.653 52.0098C127.94 51.4342 128.549 50.3882 129.171 49.6172C129.886 48.7494 130.701 47.7985 132.092 47.2367C132.628 47.0292 133.418 46.7647 134.098 46.6765C134.583 46.6143 135.138 46.7025 135.588 46.9116C136.099 47.1485 136.205 47.757 135.824 48.1875C135.319 48.7597 134.722 49.249 134.115 49.6933C133.14 50.4073 132.13 51.0642 131.123 51.7263C130.467 52.1568 129.761 52.5043 129.141 52.9883C128.906 53.1716 128.609 54.2192 129.443 54.2037C130.662 54.0342 131.678 53.4032 132.813 52.8103C133.87 52.2571 134.969 51.4584 136.029 50.7496C136.492 50.4401 137.877 49.4357 138.115 49.2628C138.906 48.6906 139.666 48.0648 140.464 47.5046C140.902 47.1969 141.267 46.4656 141.937 47.0275C142.311 47.3404 142.278 48.414 141.841 49.064C141.169 50.0615 140.448 51.0175 139.761 52.0029C139.538 52.3227 139.345 52.672 139.157 53.0195C139.078 53.1647 138.939 53.4223 139 53.507C139.057 53.6435 139.347 53.4897 139.479 53.4032C139.738 53.2338 139.972 53.016 140.208 52.8085C140.673 52.4023 141.148 52.0064 141.589 51.5707C142.032 51.1351 142.451 50.6683 142.855 50.1912C143.614 49.2991 144.327 48.3569 145.117 47.5029C145.446 47.1468 146.296 47.8832 146.258 48.5851C146.229 49.0917 145.994 49.5999 145.789 50.0771C145.401 50.976 144.968 51.8525 144.554 52.7377C144.549 52.748 144.267 53.5986 144.391 53.685C144.644 53.8043 145.055 53.5035 145.362 53.3514C146.865 52.6132 147.913 51.3201 148.777 49.8471C148.951 49.5515 148.807 49.0536 148.904 48.6785C149.03 48.1909 149.156 47.6256 149.465 47.2989C149.661 47.0932 150.26 47.1191 150.55 47.2937C151.07 47.6066 151.36 48.2238 151.105 48.8704C150.841 49.5394 150.478 50.1756 150.076 50.7599C149.45 51.6675 148.844 52.6287 148.068 53.3635C147.119 54.2607 146.075 55.113 144.945 55.6852C143.514 56.4096 142.422 55.2738 142.722 53.5294C142.831 52.9054 143.021 52.3003 143.176 51.6745ZM130.317 50.791C130.317 50.8446 130.528 50.7271 130.584 50.6856C131.71 49.8921 132.832 49.0951 133.952 48.293C133.989 48.267 134.017 48.2497 134.017 48.1374C133.973 48.025 133.861 48.0838 133.794 48.1045C133.42 48.2169 133.026 48.2912 132.683 48.4745C131.726 48.9914 130.784 49.5498 130.317 50.791Z" fill="#F39120"/>
<path d="M118.227 49.4478C117.667 49.7676 117.078 50.0373 116.553 50.4176C115.837 50.938 115.142 51.505 114.491 52.1187C113.781 52.7878 113.136 53.5398 112.452 54.2417C111.761 54.9488 111.085 55.6783 110.332 56.2972C110.174 56.4286 109.582 56.2315 109.416 55.9964C108.761 55.0663 108.712 54.0671 109.291 53.0143C109.847 52.0012 110.323 50.9345 110.824 49.8869C110.87 49.7901 110.927 49.5826 110.849 49.529C110.765 49.5135 110.658 49.612 110.576 49.6742C109.83 50.2413 109.089 50.817 108.338 51.3771C108.278 51.422 108.124 51.4411 108.071 51.3529C107.916 51.0988 107.786 50.651 107.894 50.485C108.162 50.0701 108.542 49.7157 108.932 49.4288C109.686 48.8755 110.464 48.3569 111.26 47.8815C111.704 47.617 112.194 47.394 112.687 47.2851C113.278 47.1537 113.696 48.0163 113.372 48.8479C112.924 49.9906 112.357 51.078 111.865 52.2017C111.695 52.5924 111.59 53.0177 111.462 53.4309C111.451 53.4655 111.459 53.5312 111.494 53.5571C111.557 53.6176 111.706 53.4879 111.778 53.4136C112.069 53.1232 112.34 52.8085 112.63 52.5198C114.132 51.0331 115.613 49.5186 117.158 48.0872C117.688 47.598 118.356 47.2436 119.012 46.9791C119.532 46.7699 120.063 47.3041 120.108 47.9074C120.152 48.535 119.61 49.2818 119.124 49.3319C118.84 49.3613 118.538 49.612 118.367 49.6103C118.303 49.6016 118.246 49.4927 118.227 49.4478Z" fill="#F39120"/>
<path d="M120.16 55.0231C120.079 53.379 120.812 52.0703 121.588 50.7789C121.784 50.4522 121.976 50.1237 122.162 49.7918C122.191 49.7434 122.233 49.7002 122.197 49.612C122.161 49.5532 122.1 49.5705 122.069 49.5878C121.451 49.918 120.819 50.2223 120.223 50.5957C119.7 50.9242 119.226 51.3477 118.712 51.6969C118.598 51.7747 118.353 51.7834 118.269 51.7004C118.179 51.6139 118.178 51.3754 118.194 51.2111C118.295 50.1393 119.211 49.8696 119.833 49.3752C120.898 48.5263 122.053 47.8054 123.21 47.1087C123.452 46.9635 123.992 47.0188 124.165 47.2194C124.429 47.5236 124.718 48.1443 124.599 48.4416C124.16 49.5359 123.537 50.5421 123.028 51.6053C122.804 52.0738 122.51 52.767 122.53 53.1076C122.534 53.156 122.581 53.2632 122.601 53.277C122.745 53.3808 122.902 53.2891 123.009 53.2148C124.251 52.3677 125.483 51.4998 126.727 50.6545C126.867 50.5576 127.066 50.4384 127.243 50.5283C127.367 50.7253 127.286 50.9795 127.196 51.116C126.779 51.7436 126.406 52.4541 125.86 52.9192C124.85 53.7801 123.752 54.5252 122.65 55.2478C122.18 55.5573 121.617 55.7181 121.081 55.8858C120.602 56.0344 120.13 55.5677 120.16 55.0231Z" fill="#F39120"/>
<path d="M126.787 43.9814C126.913 45.1103 126.091 46.0006 125.544 45.8363C125.246 45.7464 124.871 45.2486 124.846 44.9063C124.764 43.7774 125.342 43.0513 126.181 43.2172C126.467 43.2726 126.723 43.646 126.787 43.9814Z" fill="#F39120"/>
</svg>
