<svg width="206" height="71" viewBox="0 0 206 71" fill="none" xmlns="http://www.w3.org/2000/svg">
<path d="M38.9225 28.0236C37.5404 27.2601 35.9477 26.8784 34.1313 26.8784C30.3404 26.8784 27.5235 28.3527 25.6807 31.288C24.0354 28.3527 21.3765 26.8784 17.7304 26.8784C14.3343 26.8784 11.7413 28.3527 9.96427 31.288V27.4576H0V55.784H10.7146V38.08C10.7146 35.816 11.6096 34.684 13.3998 34.684C15.1373 34.684 16.006 35.816 16.006 38.08V55.7709H26.6679V39.3963C26.6679 36.3688 27.7078 34.8551 29.7612 34.8551C30.6299 34.8551 31.2223 35.092 31.5645 35.5659C31.9067 36.0398 32.0779 36.869 32.0779 38.0537V55.7709H42.8451V36.5136C42.8451 33.9995 42.5291 32.1567 41.9105 30.9589C41.305 29.7611 40.3178 28.787 38.9225 28.0236Z" fill="#010100"/>
<path d="M117.768 18.0459L107.225 18.217L107.053 27.4442H102.841V34.6311H107.053V43.5818L107.027 46.8988C107.027 50.1106 107.83 52.4536 109.436 53.9146C111.042 55.3889 113.543 56.1128 116.965 56.1128C119.071 56.1128 121.23 55.9022 123.415 55.481V47.557C122.191 47.8597 121.138 48.0177 120.243 48.0177C119.677 48.0177 119.111 47.8861 118.584 47.6096C118.044 47.3464 117.781 46.504 117.781 45.0692V34.6311H123.428V27.4573H117.781V18.0459H117.768Z" fill="#010100"/>
<path d="M158.125 26.8784C153.505 26.8784 149.754 28.2868 146.871 31.1037C143.988 33.9205 142.541 37.4482 142.541 41.6735C142.541 45.6091 143.923 49.0315 146.687 51.9668C149.451 54.889 153.176 56.35 157.862 56.35C162.627 56.35 166.418 54.9284 169.287 52.0984C172.157 49.2684 173.592 45.7408 173.592 41.5155C173.592 37.3166 172.17 33.8284 169.34 31.051C166.523 28.2737 162.785 26.8784 158.125 26.8784ZM161.179 46.9386C160.811 48.7287 159.758 49.6238 158.046 49.6238C156.835 49.6238 155.914 49.0973 155.308 48.0443C154.703 47.0044 154.4 44.8589 154.4 41.6076C154.4 38.8434 154.69 36.8559 155.282 35.658C155.874 34.4471 156.796 33.8416 158.073 33.8416C159.455 33.8416 160.416 34.4339 160.955 35.6054C161.482 36.7769 161.758 38.6855 161.758 41.3444C161.745 43.2793 161.561 45.1484 161.179 46.9386Z" fill="#010100"/>
<path d="M204.603 31.13C203.998 29.8796 202.984 28.866 201.563 28.0763C200.141 27.2865 198.404 26.8916 196.35 26.8916C192.441 26.8916 189.729 28.4185 188.216 31.4723V27.4576H177.896V55.784H189.005V38.7513C189.005 35.9345 190.006 34.5129 192.02 34.5129C192.704 34.5129 193.27 34.7235 193.718 35.1315C194.178 35.5396 194.389 36.4742 194.389 37.9484V55.784H205.498V37.6588C205.512 34.5524 205.209 32.3805 204.603 31.13Z" fill="#010100"/>
<path d="M137.486 36.9479C132.234 36.9479 127.969 32.6963 127.943 27.4575H127.074V55.784H138.184V36.9216C137.96 36.9348 137.723 36.9479 137.486 36.9479Z" fill="#010100"/>
<path d="M137.486 36.2237C132.629 36.2237 128.667 32.2748 128.667 27.4046C128.667 22.5475 132.616 18.5854 137.486 18.5854C142.343 18.5854 146.305 22.5343 146.305 27.4046C146.305 32.2616 142.343 36.2237 137.486 36.2237ZM137.486 24.1665C135.696 24.1665 134.248 25.6276 134.248 27.4046C134.248 29.1947 135.709 30.6426 137.486 30.6426C139.276 30.6426 140.724 29.1815 140.724 27.4046C140.724 25.6144 139.276 24.1665 137.486 24.1665Z" fill="#E2282C"/>
<path d="M99.985 51.7297C95.6675 60.6015 86.6905 66.8538 76.1339 67.1961C60.9834 67.6831 48.1497 55.5601 47.768 40.4097C47.7153 38.2773 47.8996 36.1976 48.3076 34.1968C48.3866 33.8019 48.1628 33.4202 47.7943 33.2886C47.3467 33.1306 46.8597 33.4202 46.7676 33.8809C46.32 36.0659 46.1226 38.33 46.2016 40.6598C46.7149 56.6395 59.9304 69.1442 75.9101 68.7888C87.1907 68.5387 96.7995 61.8914 101.407 52.4274C101.617 51.993 101.407 51.4796 100.946 51.3348C100.577 51.1901 100.169 51.3743 99.985 51.7297Z" fill="#E2282C"/>
<path fill-rule="evenodd" clip-rule="evenodd" d="M78.7401 45.1615C77.6213 45.53 77.3449 46.662 76.6209 47.8993C76.305 48.439 76.0681 48.9392 75.7653 49.4525C75.6074 49.7158 75.4889 49.9396 75.331 50.216C74.0278 52.4273 75.5679 52.6643 77.3317 53.2698C78.2531 53.5857 80.0959 54.4018 81.0436 54.1254C82.1493 53.8095 82.7285 52.48 83.2287 51.5059C83.5577 50.8741 84.7029 48.8076 84.8214 48.1758C85.1373 46.5436 83.4788 46.4383 82.3599 46.0565C81.4912 45.7538 79.5826 44.885 78.7401 45.1615Z" fill="#5A3187"/>
<path fill-rule="evenodd" clip-rule="evenodd" d="M71.1847 41.6865C70.1711 42.0156 69.5525 43.3845 68.9602 44.3059C66.4461 48.2811 66.4987 48.5443 69.4603 49.9791C73.4619 51.914 73.2381 51.6771 75.094 48.4522C75.4626 47.8204 76.6736 45.9249 76.8315 45.2536C77.1869 43.7004 75.5942 43.3713 74.5807 42.8843C73.8172 42.5157 72.0008 41.4232 71.1847 41.6865Z" fill="#5A3187"/>
<path fill-rule="evenodd" clip-rule="evenodd" d="M65.5904 36.4869C64.6032 36.737 63.8661 38.1323 63.3528 38.8826C62.8657 39.5802 61.9707 40.9491 61.6153 41.7652C60.8518 43.5554 61.9707 44.0292 62.971 44.6874C66.9725 47.3726 66.2223 46.3985 68.947 42.1469C69.1839 41.7915 69.6051 41.1729 69.842 40.7385C70.8819 38.7904 69.0654 38.4745 67.1305 37.0792C66.7093 36.7765 66.2354 36.329 65.5904 36.4869Z" fill="#E52855"/>
<path fill-rule="evenodd" clip-rule="evenodd" d="M83.3076 36.5267C82.3072 36.8163 81.9123 37.9878 81.399 39.0014C79.6878 42.3052 78.6348 43.2398 81.4911 44.1875C85.7822 45.6223 86.0586 46.8201 87.9804 39.9228C88.5069 38.0405 87.7961 37.8035 86.4535 37.3823C85.6901 37.1454 83.9526 36.3425 83.3076 36.5267Z" fill="#5A3187"/>
<path fill-rule="evenodd" clip-rule="evenodd" d="M77.1606 33.7358C76.0023 34.0254 75.4231 35.2101 74.7913 35.9077L72.8432 38.4745C71.7112 40.1593 73.554 40.7385 74.0673 41.0149C77.6213 42.9498 78.1347 43.0683 79.5694 40.4752C80.267 39.2247 81.9124 36.8159 81.5438 35.8156C81.3069 35.1706 77.6871 33.6042 77.1606 33.7358Z" fill="#E52855"/>
<path fill-rule="evenodd" clip-rule="evenodd" d="M86.9142 47.6756C85.8875 47.9916 85.4663 49.242 85.0451 50.1503C83.3339 53.77 81.7807 54.7441 84.5844 55.3759C88.0462 56.1657 88.757 56.4158 90.2444 53.6121C90.6788 52.7828 92.39 49.8212 91.9951 48.7945C91.7713 48.189 91.021 48.2548 90.455 48.1627C89.5995 48.0047 87.625 47.4519 86.9142 47.6756Z" fill="#5A3187"/>
<path fill-rule="evenodd" clip-rule="evenodd" d="M73.8436 53.6252C72.7774 54.0332 71.9613 56.0076 71.1452 57.2844C70.8951 57.6793 70.3686 58.1795 70.6318 58.8508C70.8951 59.5221 72.6326 59.9696 73.4487 60.2461C74.4886 60.6146 75.739 61.1806 76.8184 60.5356C77.2791 60.2592 78.4901 58.8245 78.8191 58.3375C79.2667 57.6925 80.6619 56.3893 80.0433 55.5074C79.701 55.0204 77.8188 54.5334 77.0816 54.2833C76.1734 53.9805 74.8308 53.2566 73.8436 53.6252Z" fill="#5A3187"/>
<path fill-rule="evenodd" clip-rule="evenodd" d="M66.2486 50.0446C65.4193 50.3606 64.9981 51.6505 64.6296 52.5456C63.2606 55.8495 63.1948 55.8363 66.4724 57.4158C69.4867 58.8638 69.3945 58.4689 71.0794 55.4941C71.4874 54.7833 72.6326 53.3748 71.8823 52.4271C71.6059 52.0717 69.7762 51.3083 69.1839 51.0187C68.4468 50.6633 67.091 49.7287 66.2486 50.0446Z" fill="#E52855"/>
<path fill-rule="evenodd" clip-rule="evenodd" d="M89.7574 38.5931C88.8623 38.988 88.8097 39.9752 88.5069 41.1072C87.6777 44.24 86.3482 45.859 88.757 46.3592C92.6927 47.1753 93.3377 47.965 93.9959 41.3968C94.1406 39.9225 94.0748 39.1591 92.7585 38.9485C91.9951 38.83 90.3366 38.3298 89.7574 38.5931Z" fill="#5A3187"/>
<path fill-rule="evenodd" clip-rule="evenodd" d="M59.0749 44.2928C58.3641 44.7009 58.1008 45.8724 57.7981 46.8727C57.5348 47.7283 57.0346 49.321 57.311 50.2424C57.5875 51.1638 58.5747 51.6114 59.325 52.1247C62.1155 54.007 61.8259 53.1383 63.0237 50.1635C63.3265 49.4 64.1952 48.0837 63.7477 47.0965C63.4844 46.5042 62.1813 45.8197 61.5626 45.4248C61.023 45.0958 59.7462 43.8979 59.0749 44.2928Z" fill="#E52855"/>
<path fill-rule="evenodd" clip-rule="evenodd" d="M61.1151 31.1429C59.8383 31.8273 57.1662 35.8288 56.9556 37.3294C56.8108 38.3298 57.7322 39.1722 58.5352 39.9093C60.4043 41.6205 60.3648 39.7645 63.3133 35.6051C64.3137 34.1967 64.34 33.6833 63.3791 32.8014C62.9579 32.4197 62.6815 32.1169 62.3392 31.7484C61.9707 31.3272 61.7337 30.8006 61.1151 31.1429Z" fill="#F39A22"/>
<path fill-rule="evenodd" clip-rule="evenodd" d="M77.9109 61.3781C78.5427 61.9178 79.9643 62.0494 80.912 62.2074C83.1365 62.5759 84.4265 61.3913 85.9534 59.5616C86.2298 59.2326 87.7567 57.8505 87.4408 57.1397C87.2433 56.7053 84.9793 56.4815 84.3475 56.3499C80.8725 55.6523 81.5307 56.7316 78.5295 59.996C78.2005 60.3646 77.8187 60.6146 77.9109 61.3781Z" fill="#387ABB"/>
<path fill-rule="evenodd" clip-rule="evenodd" d="M66.525 22.89C64.8138 23.6666 63.2211 24.8513 61.7864 26.1544C60.2858 27.5233 60.299 28.0367 62.1813 29.6952C62.5367 30.0111 62.7999 30.4191 63.5502 30.2612C64.3795 30.0769 66.604 27.6023 67.8808 26.5888C70.0395 24.8644 69.3024 24.8381 67.8939 23.2322C67.4464 22.7189 67.249 22.5609 66.525 22.89Z" fill="#F39A22"/>
<path fill-rule="evenodd" clip-rule="evenodd" d="M97.0891 48.9916C97.0891 49.0574 97.0759 49.1232 97.0759 49.189C96.9311 50.2947 95.5885 53.1642 94.6013 54.6516C94.3907 54.9675 94.1933 55.2308 94.0353 55.3887C93.2455 56.1785 92.4558 56.1522 91.1263 56.1653C88.9545 56.1785 90.5867 54.7174 91.9556 51.7031C92.3505 50.8344 92.7059 49.7682 93.1534 49.1759C93.8774 48.2413 94.7988 48.5835 96.1282 48.4651C96.7074 48.4124 97.1286 48.2281 97.0891 48.9916Z" fill="#387ABB"/>
<path fill-rule="evenodd" clip-rule="evenodd" d="M86.5983 29.2081C85.9665 29.3792 85.6111 30.3928 85.2821 31.143C84.4133 33.1438 83.0181 34.7892 84.7819 35.4605C85.5585 35.75 86.3351 35.987 87.0854 36.2502C89.1783 37.0137 89.1783 35.0129 89.402 32.5646C89.4942 31.5511 89.6785 30.3269 88.915 29.9057C88.6254 29.7478 86.8484 29.1423 86.5983 29.2081Z" fill="#5A3187"/>
<path fill-rule="evenodd" clip-rule="evenodd" d="M82.8601 27.6548C81.9913 27.8918 79.8195 30.1031 79.2008 30.8007C77.5818 32.6172 78.7138 32.7094 81.3595 34.0125C82.4915 34.5653 83.1102 33.9993 83.5577 33.1964C83.9658 32.4461 84.3343 31.7353 84.7424 30.9587C85.0188 30.4453 86.006 29.0238 85.2689 28.5104C85.0978 28.3919 84.3738 28.076 84.15 27.9707C83.7157 27.7601 83.4129 27.51 82.8601 27.6548Z" fill="#5A3187"/>
<path fill-rule="evenodd" clip-rule="evenodd" d="M97.8789 39.6857C98.0763 41.3574 98.1553 43.6477 97.7078 46.2935C97.6551 46.4251 97.5893 46.5304 97.5367 46.6094C97.0891 47.2149 96.0229 47.149 95.1542 47.1622C93.9695 47.1754 93.8116 46.6094 94.0485 45.3326C94.2065 44.4638 94.3776 43.6346 94.496 42.7263C94.5882 41.9102 94.6013 40.5808 94.8119 39.9095C95.1542 38.8696 95.9308 39.2908 97.0628 39.1592C97.1286 39.146 97.1944 39.146 97.2471 39.146C97.563 39.1329 97.8394 39.3698 97.8789 39.6857Z" fill="#387ABB"/>
<path fill-rule="evenodd" clip-rule="evenodd" d="M56.3501 45.8722C56.2712 46.2802 56.1395 46.8331 56.0211 47.2543C55.9947 47.3332 55.9816 47.4122 55.9553 47.478C55.9553 47.4912 55.9421 47.5044 55.9421 47.5175C55.8763 47.8071 55.8236 48.1757 55.4946 48.2415C55.4814 48.2415 55.4551 48.2415 55.4419 48.2415C55.4419 48.2415 55.4419 48.2415 55.4287 48.2415C55.3761 48.2415 55.3234 48.2152 55.2708 48.1757C55.2576 48.1757 55.2576 48.1625 55.2445 48.1625C54.718 47.8598 53.9282 47.0437 53.6254 46.6356C52.941 45.7405 52.8225 45.372 52.9673 43.8977C53.0858 42.8184 53.2569 41.9233 53.4806 40.9756C53.6518 40.2516 53.9413 38.6589 54.7969 39.0012L56.5081 40.7123C58.1403 42.1734 56.8372 43.4502 56.3501 45.8722Z" fill="#FAC50B"/>
<path fill-rule="evenodd" clip-rule="evenodd" d="M55.4945 48.2417C55.4814 48.2417 55.4551 48.2549 55.4419 48.2417C55.4682 48.2549 55.4814 48.2549 55.4945 48.2417Z" fill="#FAC50B"/>
<path fill-rule="evenodd" clip-rule="evenodd" d="M82.1098 27.2073C82.0967 27.2205 82.0967 27.2468 82.0835 27.26C82.0835 27.26 82.0835 27.2731 82.0703 27.2731C81.7149 28.0366 80.3592 28.9975 79.5562 29.7477C78.6612 30.577 77.5423 32.0776 76.2918 31.3536C75.6469 30.9719 74.7518 30.4059 74.2121 29.9715C73.2907 29.2212 74.7386 28.392 75.2783 28.0497C76.305 27.4048 78.8586 25.9042 79.9643 25.8121C80.5171 25.7594 81.4912 26.4176 81.9387 26.7861C81.9387 26.7861 81.9387 26.7861 81.9519 26.7993C82.0703 26.9177 82.1625 27.0494 82.1098 27.2073Z" fill="#E52855"/>
<path fill-rule="evenodd" clip-rule="evenodd" d="M90.3235 30.4454C89.8101 30.814 89.9812 32.1566 89.9286 32.9332C89.8759 33.802 89.6916 34.8418 89.6653 35.6711C89.639 36.8952 90.0997 37.119 91.0079 37.3164C93.8511 37.9483 94.7857 38.5011 93.4299 32.8674C93.2456 32.1303 92.9692 31.1826 92.5085 30.814C92.2584 30.6034 90.5999 30.248 90.3235 30.4454Z" fill="#5A3187"/>
<path fill-rule="evenodd" clip-rule="evenodd" d="M67.4069 63.3259C68.1309 63.9314 70.7766 64.866 71.8559 64.5632C72.4351 64.4053 73.2512 63.8261 73.7382 63.4707C74.1726 63.1548 75.5021 62.4045 74.7649 61.7464C74.6596 61.6542 70.7239 60.259 70.3817 60.2195C69.2629 60.0615 68.947 60.7065 68.5389 61.3252C68.3283 61.6542 68.144 61.8912 67.9203 62.2071C67.657 62.5493 67.3937 62.7072 67.4069 63.3259Z" fill="#5A3187"/>
<path fill-rule="evenodd" clip-rule="evenodd" d="M63.2343 57.3109C62.7078 57.6136 62.6288 58.7061 62.5498 59.4564C62.3129 61.5493 63.0632 61.5098 65.1034 62.497C66.0117 62.9314 66.5118 63.142 67.0778 62.2338C67.4201 61.6809 67.8545 61.0491 68.144 60.4831C68.6442 59.5222 67.8545 59.1273 67.2095 58.8114C66.5382 58.4823 65.9327 58.2323 65.2877 57.9032C64.7875 57.6399 63.8135 56.9818 63.2343 57.3109Z" fill="#E52855"/>
<path fill-rule="evenodd" clip-rule="evenodd" d="M79.1482 24.8116C79.135 24.8247 79.135 24.8247 79.1219 24.8379C79.1087 24.8379 79.1087 24.8511 79.0955 24.8511C78.5559 25.2723 77.7793 25.5092 77.0948 25.8646C73.0538 27.9575 72.6984 28.9974 70.7766 26.628C70.079 25.7725 71.4743 25.2723 72.1456 24.9827C72.9222 24.6536 73.7119 24.3772 74.5412 24.1139C75.5152 23.8112 77.6345 23.0083 78.5559 23.7717C78.7796 23.956 79.0429 24.1534 79.2008 24.443C79.2008 24.4562 79.2008 24.4562 79.214 24.4693C79.2403 24.5878 79.2798 24.6931 79.1482 24.8116Z" fill="#E52855"/>
<path fill-rule="evenodd" clip-rule="evenodd" d="M91.5739 56.9949C92.1268 56.9686 92.4427 57.6004 92.1136 58.0348C91.2975 59.0747 89.7969 60.3515 89.2836 60.7727C88.0331 61.7994 86.3746 62.9577 84.2291 62.5233C84.2291 62.5233 84.2291 62.5233 84.2159 62.5233C84.0711 62.4838 84.0448 62.3917 84.0711 62.2996V62.2864C84.2817 61.6414 85.3216 60.9701 85.7428 60.5621L87.4408 58.7588C87.862 58.2849 88.586 57.3898 89.4415 57.1529C89.5863 57.1002 90.692 57.0344 91.5739 56.9949Z" fill="#387ABB"/>
<path fill-rule="evenodd" clip-rule="evenodd" d="M57.0083 25.9304C56.7055 26.2332 56.5476 26.3911 56.3238 26.6939C56.1264 26.9703 55.9026 27.2599 55.692 27.5626C55.3103 28.1155 54.8496 28.7473 54.5468 29.4186C53.9808 30.6427 54.1519 30.7085 54.7838 31.4983C55.1918 32.0117 55.9816 32.8673 56.6266 32.4066L58.9959 28.8263C59.8383 27.5626 59.2328 27.3784 58.7458 26.8913C58.4562 26.6281 57.548 25.3644 57.0083 25.9304Z" fill="#FAC50B"/>
<path fill-rule="evenodd" clip-rule="evenodd" d="M62.1944 57.8635C62.1549 58.1531 61.9575 60.3645 61.9575 60.3776C61.6416 61.1543 59.1406 59.0877 58.8116 58.5612C58.2982 57.7714 57.6006 55.0862 58.0745 54.0332C58.1139 53.9147 58.2192 53.8752 58.4693 53.9542C59.0353 54.1911 59.5224 54.5597 59.9304 54.8361C60.4438 55.1783 61.1282 55.5337 61.5494 55.8628C62.1418 56.3235 62.3524 56.8632 62.1944 57.8635Z" fill="#E52855"/>
<path fill-rule="evenodd" clip-rule="evenodd" d="M97.1944 37.7901C97.1813 37.7901 97.1549 37.8033 97.1418 37.8033H97.1286C96.51 37.9349 95.4701 38.0139 95.1147 37.7769C94.6145 37.4479 94.5224 36.408 94.4039 35.6051C94.2986 34.9074 93.3377 31.156 93.4299 30.9454C93.522 30.748 93.9169 30.7085 94.2591 30.7085C94.2591 30.7085 94.2591 30.7085 94.2723 30.7085C94.654 30.7348 96.3257 31.7484 97.4182 37.053C97.4709 37.4479 97.484 37.7111 97.1944 37.7901Z" fill="#387ABB"/>
<path fill-rule="evenodd" clip-rule="evenodd" d="M72.4614 64.9321C73.0801 65.7087 75.9364 65.7218 77.279 65.3138C78.0293 65.0769 78.7401 64.8004 79.4114 64.4714C80.0827 64.1555 81.1094 63.7869 81.0963 63.1682C80.754 62.9576 79.2666 62.7865 78.7138 62.668C76.0944 62.102 76.2655 62.4443 74.37 63.7211C73.9488 64.0107 72.751 64.5108 72.4614 64.9321Z" fill="#5A3187"/>
<path fill-rule="evenodd" clip-rule="evenodd" d="M65.4193 18.3485C65.5115 18.7171 65.3799 19.1119 65.0903 19.362C63.9056 20.4151 61.1809 22.5211 60.5491 22.9555C60.1937 23.1924 59.9436 23.2187 59.7593 23.1398C59.575 23.0608 59.4697 22.8765 59.3908 22.7054L59.3381 22.5343C59.2986 22.4026 59.2723 22.271 59.2591 22.1394C59.2196 21.7972 59.3644 21.4549 59.6145 21.2312L60.9308 20.0465C61.2467 19.7964 61.5626 19.5726 61.8522 19.3752C65.4457 16.9927 65.2219 17.5324 65.4193 18.3485Z" fill="#FAC50B"/>
<path fill-rule="evenodd" clip-rule="evenodd" d="M98.1685 46.1488C98.129 46.3857 98.6424 46.4515 98.8793 46.4515C99.7481 46.4252 99.7612 45.7539 99.8797 45.3064C100.393 43.4241 100.354 40.5677 99.9455 38.6065C99.8929 38.3169 99.5506 38.1984 99.3137 38.3827C99.2479 38.4353 98.8398 38.6854 98.7214 38.7381C98.1949 39.0014 98.1817 39.2909 98.2607 39.9754C98.3791 40.91 98.4844 41.8709 98.4581 42.8054C98.4318 43.9243 98.366 45.0431 98.1685 46.1488Z" fill="#387ABB"/>
<path fill-rule="evenodd" clip-rule="evenodd" d="M76.95 20.5733C76.9894 20.8234 76.8315 21.0603 76.5946 21.1393C75.5152 21.5079 74.2516 21.7053 73.238 22.0607C72.5667 22.2976 72.0402 22.4688 71.4084 22.7057C70.1316 23.1927 69.2102 23.6534 69.2102 22.1397V22.1265C69.2102 22.1134 69.2102 22.087 69.2102 22.0739C69.2234 21.9028 69.3155 21.7711 69.6051 21.6132C71.211 20.7708 74.3569 20.06 76.4366 20.1126C76.6999 20.1258 76.9236 20.3232 76.95 20.5733Z" fill="#F39A22"/>
<path fill-rule="evenodd" clip-rule="evenodd" d="M56.3369 56.4685C56.3106 56.5079 56.2843 56.5474 56.2448 56.6001C56.1263 56.7054 55.9421 56.7185 55.8104 56.6001C55.5208 56.3237 55.2313 56.0078 55.1128 55.8498C54.1387 54.652 52.7961 51.019 53.0462 49.7422C53.0462 49.7422 53.0462 49.7422 53.0462 49.7291C53.0857 49.4132 53.27 49.5185 53.4279 49.6896L53.4411 49.7028C53.4411 49.7159 53.4543 49.7159 53.4543 49.7291C53.4674 49.7422 53.4806 49.7554 53.4938 49.7817C53.5464 49.8475 53.7175 50.0713 53.8097 50.1766C54.2572 50.7295 54.7311 51.0454 55.0996 51.4534C55.0996 51.4534 55.0996 51.4534 55.1128 51.4666C55.8499 52.151 55.9157 53.8096 56.0737 54.8626C56.2316 55.8103 56.6002 56.0078 56.3369 56.4685Z" fill="#F39A22"/>
<path fill-rule="evenodd" clip-rule="evenodd" d="M56.337 56.4683C56.3238 56.5209 56.2843 56.5604 56.2448 56.5999C56.2843 56.5472 56.3106 56.5078 56.337 56.4683Z" fill="#F39A22"/>
<path fill-rule="evenodd" clip-rule="evenodd" d="M99.4189 36.7899C99.4189 36.9347 98.9451 37.1848 98.8003 37.277C98.1948 37.606 97.9579 37.4876 97.7867 37.0532C97.6419 36.4477 97.4445 35.6974 97.4445 35.6974C96.4968 32.433 95.5754 31.3668 95.4306 31.0773C95.3385 30.8667 95.299 30.6824 95.3648 30.6166L95.3779 30.6034C95.4174 30.5507 95.4701 30.5113 95.5622 30.4586C95.5754 30.4586 95.5754 30.4454 95.5885 30.4454L95.6017 30.4323L95.8255 30.2875C95.9834 30.1822 96.1809 30.1953 96.3125 30.327C97.2865 31.2352 99.3531 34.9076 99.4189 36.7899Z" fill="#387ABB"/>
<path fill-rule="evenodd" clip-rule="evenodd" d="M97.8394 47.8596C97.8657 47.7675 97.9447 47.6885 98.05 47.6753C98.4712 47.5832 99.3531 47.7148 99.2741 47.9781C98.8793 49.3075 97.9973 51.1108 97.6025 51.8874C97.1154 52.8615 96.2467 54.8096 95.3779 55.5862C95.2858 55.6652 95.1542 55.6915 95.0357 55.6388C94.9567 55.5993 94.8514 55.5467 94.7856 55.494C94.7066 55.4414 94.654 55.3361 94.6803 55.2439C94.8514 54.5858 95.4174 53.796 95.6938 53.2695C96.0624 52.5719 96.4441 51.8084 96.7732 51.0318C97.5893 48.702 97.7209 48.215 97.8394 47.8596Z" fill="#387ABB"/>
<path fill-rule="evenodd" clip-rule="evenodd" d="M86.2561 9.7402C87.4144 9.45062 87.9936 8.26596 88.6254 7.56833L90.5735 5.00158C91.7055 3.31674 89.8627 2.73757 89.3494 2.46115C85.7954 0.526212 85.2821 0.407746 83.8473 3.00083C83.1497 4.2513 81.5043 6.6601 81.8729 7.66047C82.1098 8.30545 85.7428 9.85867 86.2561 9.7402Z" fill="#E52855"/>
<path fill-rule="evenodd" clip-rule="evenodd" d="M95.1016 10.3983C96.3784 9.71384 99.0504 5.71233 99.261 4.21177C99.4058 3.21139 98.4844 2.36897 97.6815 1.63185C95.8124 -0.0793165 95.8518 1.77664 92.9034 5.9361C91.903 7.34453 91.8767 7.85788 92.8376 8.73979C93.2588 9.12151 93.5352 9.42426 93.8774 9.79282C94.2328 10.214 94.4697 10.7405 95.1016 10.3983Z" fill="#F39A22"/>
<path fill-rule="evenodd" clip-rule="evenodd" d="M89.6784 18.6514C91.3896 17.8748 92.9823 16.6902 94.4171 15.387C95.9176 14.0181 95.9045 13.5047 94.0222 11.8462C93.6668 11.5303 93.4035 11.1223 92.6533 11.2802C91.824 11.4645 89.5995 13.9391 88.3227 14.9527C86.164 16.677 86.9011 16.7033 88.3227 18.3092C88.757 18.8225 88.9545 18.9805 89.6784 18.6514Z" fill="#F39A22"/>
<path fill-rule="evenodd" clip-rule="evenodd" d="M80.9252 13.4917C79.8985 14.1367 77.3449 15.6372 76.2392 15.7294C75.7653 15.7688 74.9756 15.295 74.4754 14.9133C74.4622 14.9133 74.4622 14.9001 74.4491 14.8869C74.4359 14.8738 74.4227 14.8738 74.4096 14.8606C74.12 14.6237 74.12 14.242 74.2911 13.9919C74.7913 13.2811 75.9365 12.4518 76.6604 11.7805C77.5555 10.9512 78.6743 9.45068 79.9248 10.1746C80.5698 10.5564 81.4649 11.1224 82.0045 11.5567C82.9128 12.307 81.4649 13.1494 80.9252 13.4917Z" fill="#E52855"/>
<path fill-rule="evenodd" clip-rule="evenodd" d="M101.67 12.1224C101.354 12.7937 100.906 13.4387 100.525 13.9784C100.314 14.2811 100.09 14.5707 99.8928 14.8471C99.6822 15.1499 99.5111 15.3078 99.2083 15.6106C98.9846 15.8343 98.695 15.7554 98.4186 15.5711C98.129 15.4263 97.4577 14.6892 97.076 14.268C96.7732 13.9652 96.6284 13.6098 97.2339 12.7016L99.6032 9.12129C100.235 8.66059 101.025 9.50301 101.446 10.0295C102.065 10.8325 102.236 10.8983 101.67 12.1224Z" fill="#FAC50B"/>
<path fill-rule="evenodd" clip-rule="evenodd" d="M96.8127 20.1125L95.2858 21.4946C94.9699 21.7447 94.654 21.9685 94.3644 22.1659C90.7183 24.5879 90.9947 23.9955 90.7841 23.1663C90.692 22.8109 90.7841 22.416 91.0605 22.1659C91.7187 21.5341 92.6269 21.0471 93.4957 20.4416C94.496 19.7439 95.4306 18.7172 96.3125 18.4408H96.3257C96.5231 18.3882 96.6679 18.4671 96.7469 18.6514C96.7601 18.6777 96.7601 18.6909 96.7732 18.7172C96.9443 19.1648 97.076 19.6913 96.8127 20.1125Z" fill="#FAC50B"/>
<path fill-rule="evenodd" clip-rule="evenodd" d="M86.9932 19.4808C86.9932 19.494 86.9932 19.5071 86.9932 19.5203C86.9932 19.5466 86.9932 19.5861 86.9932 19.6124C86.98 19.6519 86.9537 19.7046 86.8879 19.7572C86.8879 19.7572 86.8747 19.7572 86.8747 19.7704C86.8484 19.7836 86.8221 19.7967 86.7958 19.823C85.2162 20.7444 81.7017 21.5342 79.5562 21.4289C79.4246 21.4158 79.3061 21.3236 79.293 21.1788L79.2403 20.7708C79.2271 20.6391 79.293 20.5075 79.4246 20.468C80.5434 20.06 81.8992 19.8494 82.9785 19.4808C83.6499 19.2439 84.1764 19.0728 84.8082 18.8358C86.0981 18.3356 87.0327 17.8618 86.9932 19.4808Z" fill="#F39A22"/>
<path fill-rule="evenodd" clip-rule="evenodd" d="M105.25 14.2679C105.25 14.2679 105.25 14.2811 105.25 14.2679C105.237 14.2811 105.237 14.2943 105.224 14.3074C105.224 14.3074 105.224 14.3206 105.211 14.3206C105.105 14.4786 104.816 14.9392 104.513 15.4263L103.763 16.5451C103.71 16.6241 103.671 16.6899 103.631 16.7557C103.381 17.0585 103.118 16.7031 103.026 16.3872C103.026 16.374 103.012 16.3608 103.012 16.3477C102.986 16.2292 102.96 16.1371 102.947 16.0976C102.749 15.3078 103.513 14.518 104 13.7283C104.605 12.7279 104.776 12.2804 105.224 11.4379C105.303 11.28 105.382 11.1615 105.461 11.0825C105.592 10.9904 105.763 10.9377 105.921 11.201C106.277 12.0698 105.79 13.3071 105.25 14.2679Z" fill="#F39A22"/>
<path fill-rule="evenodd" clip-rule="evenodd" d="M52.217 27.8126C51.6115 28.813 51.4536 29.2605 50.9929 30.103C50.9139 30.2477 50.8612 30.353 50.7823 30.432C50.7428 30.4847 50.6901 30.5242 50.6506 30.5373C50.4795 30.6031 50.3084 30.4189 50.2426 30.1688C49.8872 28.9709 50.927 27.2334 51.5194 26.3515L52.4408 24.9694C52.4934 24.8773 52.5461 24.7983 52.5987 24.7325C52.7435 24.5351 53.0594 24.614 53.1252 24.851C53.1911 25.0879 53.2437 25.338 53.27 25.417C53.4543 26.2331 52.704 27.0228 52.217 27.8126Z" fill="#F39A22"/>
<path d="M194.6 65.2082C192.52 67.13 190.769 69.4598 188.045 70.5524C187.663 70.7103 187.084 70.8288 186.807 70.6445C186.504 70.4339 186.347 69.8679 186.307 69.4467C186.123 67.4328 187.294 65.9848 188.413 64.5106C188.663 64.1815 188.861 63.8261 188.966 63.3523C187.979 64.0236 186.965 64.6817 185.991 65.3794C185.372 65.8137 182.411 67.7487 181.529 68.2489C180.95 68.5779 180.397 68.986 179.805 69.2624C178.91 69.6704 178.001 70.197 177.054 70.3154C176.053 70.4339 174.513 70.6577 173.381 69.1571C172.644 68.2357 172.934 66.6825 173.5 65.6294C173.894 64.9187 174.724 63.6155 175.566 62.6546C176.54 61.5753 177.646 60.3906 179.541 59.693C180.265 59.4297 181.345 59.1007 182.266 58.9954C182.924 58.9164 183.674 59.0217 184.293 59.285C184.991 59.5745 185.136 60.338 184.609 60.8777C183.925 61.5885 183.108 62.1939 182.292 62.7468C180.963 63.6287 179.594 64.4448 178.225 65.2741C177.33 65.8137 176.369 66.2349 175.527 66.8404C175.211 67.0642 174.803 68.3673 175.935 68.3542C177.593 68.1435 178.975 67.3538 180.515 66.6167C181.95 65.9322 183.451 64.9318 184.885 64.0631C185.517 63.6813 187.4 62.4309 187.715 62.2203C188.795 61.5095 189.822 60.7329 190.901 60.0352C191.493 59.6535 191.993 58.7453 192.902 59.4429C193.415 59.8378 193.362 61.1672 192.77 61.9702C191.862 63.2075 190.875 64.3921 189.94 65.6163C189.637 66.0112 189.374 66.4455 189.124 66.8799C189.019 67.0642 188.821 67.3801 188.913 67.4854C188.992 67.6565 189.387 67.4591 189.558 67.3538C189.914 67.1432 190.23 66.8668 190.545 66.6167C191.177 66.1165 191.822 65.6163 192.428 65.0766C193.033 64.5369 193.599 63.9578 194.152 63.3654C195.179 62.2598 196.153 61.0883 197.232 60.0221C197.68 59.5745 198.838 60.4959 198.785 61.3647C198.746 61.9965 198.43 62.6283 198.154 63.2206C197.627 64.3395 197.035 65.432 196.482 66.5245C196.469 66.5377 196.087 67.5907 196.258 67.696C196.6 67.8408 197.166 67.4722 197.574 67.288C199.615 66.3666 201.036 64.7607 202.221 62.9311C202.458 62.5625 202.26 61.9439 202.392 61.4832C202.563 60.8777 202.734 60.18 203.155 59.772C203.419 59.5219 204.235 59.5482 204.63 59.772C205.341 60.1669 205.735 60.9303 205.38 61.7332C205.025 62.5625 204.524 63.3523 203.985 64.0762C203.129 65.2082 202.313 66.3929 201.26 67.3143C199.97 68.4331 198.548 69.4862 197.022 70.197C195.073 71.092 193.599 69.6836 194.007 67.5117C194.126 66.7351 194.389 65.9848 194.6 65.2082ZM177.119 64.1157C177.119 64.1815 177.409 64.0367 177.488 63.9841C179.015 62.9969 180.542 62.0097 182.069 61.0093C182.121 60.983 182.161 60.9566 182.161 60.8118C182.095 60.6671 181.95 60.746 181.858 60.7724C181.345 60.9172 180.818 61.0093 180.344 61.2331C179.041 61.878 177.751 62.5757 177.119 64.1157Z" fill="#F2901E"/>
<path d="M160.692 62.4441C159.929 62.839 159.126 63.1812 158.415 63.6419C157.441 64.2869 156.493 64.9977 155.611 65.7611C154.65 66.5904 153.769 67.525 152.834 68.3937C151.899 69.2756 150.978 70.1839 149.951 70.9473C149.741 71.1053 148.938 70.8683 148.701 70.5787C147.819 69.4204 147.74 68.1831 148.53 66.88C149.28 65.6164 149.938 64.3001 150.609 62.9969C150.675 62.8785 150.754 62.6152 150.649 62.5494C150.53 62.5362 150.386 62.6547 150.28 62.7337C149.267 63.4445 148.253 64.1553 147.24 64.8529C147.161 64.9056 146.95 64.9319 146.871 64.8266C146.661 64.5107 146.49 63.9578 146.634 63.7472C147.003 63.2339 147.516 62.7863 148.043 62.4309C149.069 61.7465 150.122 61.1015 151.202 60.5092C151.807 60.1801 152.465 59.9037 153.137 59.7721C153.94 59.6141 154.506 60.6803 154.071 61.707C153.466 63.1286 152.689 64.4843 152.018 65.8796C151.781 66.3666 151.649 66.8931 151.465 67.4065C151.452 67.446 151.465 67.5381 151.505 67.5645C151.597 67.6434 151.794 67.4723 151.886 67.3933C152.281 67.0379 152.65 66.6431 153.045 66.2877C155.085 64.4449 157.099 62.5626 159.205 60.7856C159.929 60.1801 160.837 59.7326 161.719 59.4035C162.43 59.1402 163.154 59.8115 163.206 60.5618C163.272 61.3384 162.535 62.273 161.864 62.3388C161.482 62.3783 161.061 62.681 160.837 62.681C160.798 62.6284 160.719 62.4968 160.692 62.4441Z" fill="#F2901E"/>
<path d="M163.312 69.3678C163.206 67.3276 164.194 65.6954 165.26 64.0895C165.523 63.6815 165.786 63.2734 166.036 62.8654C166.076 62.7996 166.128 62.7469 166.089 62.6416C166.036 62.5626 165.957 62.589 165.918 62.6153C165.075 63.0233 164.22 63.4051 163.404 63.8658C162.693 64.2738 162.048 64.8003 161.35 65.2347C161.192 65.3268 160.863 65.34 160.745 65.2347C160.626 65.1294 160.613 64.8267 160.64 64.6292C160.771 63.2998 162.022 62.9575 162.864 62.352C164.312 61.299 165.878 60.4039 167.458 59.5352C167.787 59.3509 168.524 59.4299 168.761 59.68C169.116 60.0617 169.511 60.8252 169.353 61.1937C168.761 62.5495 167.905 63.8 167.221 65.1294C166.918 65.7086 166.523 66.5773 166.55 66.9985C166.55 67.0643 166.615 67.196 166.642 67.2091C166.839 67.3408 167.05 67.2223 167.195 67.1302C168.88 66.0771 170.551 64.9978 172.249 63.9447C172.447 63.8263 172.71 63.6815 172.947 63.7868C173.118 64.0369 172.999 64.3528 172.881 64.5107C172.315 65.2874 171.802 66.1693 171.065 66.7484C169.696 67.8146 168.195 68.7492 166.708 69.6443C166.063 70.026 165.299 70.2234 164.575 70.434C163.917 70.6315 163.272 70.0523 163.312 69.3678Z" fill="#F2901E"/>
<path d="M172.328 55.6522C172.499 57.0606 171.38 58.1663 170.643 57.9557C170.235 57.8372 169.722 57.2185 169.696 56.7973C169.59 55.3889 170.367 54.4938 171.512 54.6913C171.894 54.7702 172.236 55.2309 172.328 55.6522Z" fill="#F2901E"/>
</svg>
